<!DOCTYPE svg PUBLIC "-//W3C//DTD SVG 20010904//EN" "http://www.w3.org/TR/2001/REC-SVG-20010904/DTD/svg10.dtd">
<svg version="1.0" xmlns="http://www.w3.org/2000/svg" width="255px" height="400px" viewBox="0 0 10180 16000" preserveAspectRatio="xMidYMid meet">
<g id="layer101" fill="#3e3935" stroke="none">
 <path d="M4590 15975 c0 -25 1 -25 63 -20 80 8 111 -7 115 -54 3 -29 1 -33 -15 -26 -10 5 -39 10 -64 13 -38 3 -51 -1 -77 -23 -63 -53 -72 -215 -15 -281 24 -28 28 -29 134 -32 96 -3 110 -2 116 14 4 10 0 22 -10 29 -15 11 -17 35 -17 182 l0 170 -26 27 c-25 24 -33 26 -115 26 -89 0 -89 0 -89 -25z m163 -149 c14 -11 17 -30 17 -125 l0 -111 -49 0 c-38 0 -56 6 -78 24 -26 23 -28 29 -28 104 0 99 16 122 79 122 23 0 49 -7 59 -14z"/>
 <path d="M4890 15981 c0 -13 9 -21 33 -25 53 -10 83 -77 54 -121 -30 -45 -97 -240 -97 -282 0 -2 12 -3 27 -1 23 3 29 9 34 43 8 43 66 204 80 219 13 15 38 -51 80 -216 9 -37 16 -48 32 -48 18 0 19 4 13 59 -12 108 -95 308 -150 362 -37 36 -106 43 -106 10z"/>
 <path d="M7840 15977 c0 -22 3 -23 76 -23 68 1 78 -1 95 -23 10 -13 19 -32 19 -43 0 -17 -4 -19 -22 -13 -114 37 -178 -2 -191 -114 -10 -82 3 -139 38 -177 l32 -34 102 0 c83 0 103 3 108 16 3 8 1 20 -6 27 -7 7 -11 63 -11 164 0 223 -12 242 -152 243 -85 0 -88 -1 -88 -23z m165 -153 c24 -16 25 -20 25 -125 l0 -109 -44 0 c-95 0 -118 26 -118 130 0 88 20 119 75 120 21 0 49 -7 62 -16z"/>
 <path d="M8600 15980 c0 -14 7 -20 23 -20 26 -1 46 -15 69 -51 16 -25 15 -28 -23 -107 -21 -45 -39 -87 -39 -95 0 -7 -4 -17 -9 -22 -5 -6 -13 -38 -19 -72 -8 -60 -8 -63 12 -63 17 0 24 10 35 48 19 68 62 184 77 205 12 18 13 18 22 0 16 -30 62 -200 62 -227 0 -21 5 -26 25 -26 28 0 29 4 14 86 -19 111 -93 280 -147 337 -33 35 -102 40 -102 7z"/>
 <path d="M765 15892 c-64 -21 -85 -64 -85 -174 0 -62 5 -92 19 -118 41 -78 195 -79 235 -1 23 44 22 203 -1 242 -29 49 -104 71 -168 51z m110 -66 c30 -30 41 -99 25 -165 -10 -43 -16 -51 -48 -64 -27 -11 -44 -12 -65 -5 -47 17 -60 47 -56 137 4 69 7 82 28 100 33 29 85 28 116 -3z"/>
 <path d="M1280 15882 c-49 -24 -69 -70 -70 -162 0 -91 20 -137 70 -162 71 -36 161 -12 192 52 21 42 24 165 6 207 -35 77 -119 105 -198 65z m115 -40 c44 -31 61 -152 30 -211 -19 -37 -64 -54 -105 -39 -42 14 -60 54 -60 130 0 90 27 128 90 128 19 0 40 -4 45 -8z"/>
 <path d="M1914 15894 c-12 -3 -34 -19 -50 -35 -28 -30 -29 -33 -29 -139 l0 -110 33 -32 c31 -31 36 -33 104 -32 68 0 72 2 99 33 60 73 46 257 -23 300 -21 13 -101 22 -134 15z m112 -67 c25 -22 27 -31 28 -93 1 -95 -7 -118 -49 -138 -31 -15 -38 -15 -69 -2 -30 12 -37 22 -51 69 -18 63 -8 130 26 166 27 29 80 28 115 -2z"/>
 <path d="M2707 15893 c-43 -7 -69 -56 -64 -119 5 -75 23 -88 119 -93 l78 -3 0 -35 c0 -30 -5 -36 -36 -49 -28 -12 -46 -13 -82 -5 -52 11 -62 8 -62 -18 0 -40 188 -35 217 5 9 13 13 62 13 166 0 141 -1 148 -20 148 -11 0 -20 -7 -20 -15 0 -14 -3 -14 -22 -1 -27 17 -81 26 -121 19z m104 -60 c26 -15 29 -23 29 -65 l0 -48 -55 0 c-48 0 -60 4 -80 26 -14 15 -25 31 -25 36 0 14 21 52 34 60 19 13 67 9 97 -9z"/>
 <path d="M3053 15893 c-13 -2 -36 -18 -52 -34 -34 -34 -48 -106 -37 -192 13 -98 66 -135 172 -120 36 5 44 9 44 27 0 20 -5 21 -65 21 -53 0 -67 4 -79 20 -32 43 -32 167 0 210 12 16 26 20 79 20 61 0 65 1 65 22 0 15 -6 23 -17 23 -10 0 -34 2 -53 4 -19 2 -45 2 -57 -1z"/>
 <path d="M4133 15891 c-69 -17 -93 -63 -93 -172 0 -133 34 -174 143 -174 55 0 61 2 88 35 25 30 29 42 29 97 l0 63 -106 0 -107 0 6 35 c9 58 30 70 116 70 71 1 76 2 79 23 3 18 -1 22 -25 22 -15 0 -44 2 -63 5 -19 2 -50 0 -67 -4z m117 -225 c0 -38 -10 -56 -41 -72 -51 -26 -119 17 -119 75 0 19 6 21 80 21 78 0 80 -1 80 -24z"/>
 <path d="M5880 15893 c-33 -7 -76 -56 -84 -95 -8 -39 -8 -117 0 -156 10 -52 53 -91 104 -98 106 -14 157 28 167 137 13 135 -24 205 -112 213 -27 2 -61 2 -75 -1z m94 -53 c43 -16 61 -134 32 -204 -26 -62 -116 -67 -147 -9 -8 16 -14 56 -14 100 0 69 2 76 28 99 30 26 60 30 101 14z"/>
 <path d="M6884 15894 c-63 -14 -101 -111 -88 -219 11 -86 40 -120 110 -131 69 -10 125 12 149 61 41 82 21 238 -36 273 -22 14 -101 23 -135 16z m102 -59 c12 -8 27 -35 34 -60 31 -110 -29 -212 -108 -184 -52 18 -77 81 -65 168 10 77 82 116 139 76z"/>
 <path d="M8340 15891 c-36 -5 -46 -10 -48 -27 -3 -20 1 -21 86 -20 100 1 119 -9 129 -66 7 -48 -22 -80 -95 -102 -33 -9 -75 -30 -93 -46 -32 -26 -34 -32 -34 -89 0 -53 4 -64 27 -88 23 -23 38 -28 93 -31 93 -6 135 3 135 31 0 21 -3 22 -71 19 -93 -5 -114 1 -129 38 -25 60 13 99 121 125 15 4 41 19 59 34 27 22 33 36 37 77 6 59 -15 115 -50 132 -29 15 -111 21 -167 13z"/>
 <path d="M8950 15891 c-37 -5 -46 -10 -48 -28 -3 -22 -2 -23 71 -17 68 6 76 5 96 -15 40 -40 9 -84 -66 -96 -57 -8 -103 -51 -103 -97 0 -71 60 -104 164 -92 51 6 56 9 56 31 0 18 -4 23 -17 19 -57 -15 -84 -16 -117 -2 -63 26 -43 80 34 92 53 9 101 41 113 78 12 36 -5 96 -31 113 -25 15 -97 22 -152 14z"/>
 <path d="M9482 15891 c-73 -19 -97 -71 -90 -198 4 -78 7 -86 36 -116 29 -29 37 -32 98 -32 63 0 67 1 95 35 25 30 29 42 29 97 l0 63 -106 0 -106 0 7 36 c10 58 28 69 114 69 71 1 76 2 79 23 3 18 -1 22 -25 22 -15 0 -44 2 -63 5 -19 2 -50 0 -68 -4z m118 -234 c0 -34 -18 -58 -53 -70 -28 -10 -86 19 -97 48 -20 52 -16 55 70 55 l80 0 0 -33z"/>
 <path d="M0 15661 l0 -228 31 -7 c56 -11 148 -6 188 10 31 12 42 24 55 57 26 69 15 159 -24 199 -27 27 -88 41 -146 33 l-54 -6 0 85 c0 85 0 86 -25 86 l-25 0 0 -229z m205 -5 c27 -22 30 -29 29 -85 -1 -84 -21 -101 -116 -101 l-68 0 0 99 c0 111 -3 108 80 110 34 1 53 -5 75 -23z"/>
 <path d="M350 15650 l0 -240 25 0 c25 0 25 1 25 81 0 73 2 80 16 68 9 -7 43 -13 79 -13 54 -1 68 3 87 22 22 21 23 32 26 172 l3 150 -25 0 -26 0 0 -124 c0 -68 -3 -132 -6 -141 -4 -8 -19 -22 -35 -31 -26 -13 -32 -12 -74 7 l-45 21 0 134 0 134 -25 0 -25 0 0 -240z"/>
 <path d="M1046 15868 c-13 -18 -16 -51 -16 -150 0 -107 -2 -128 -15 -128 -8 0 -15 -9 -15 -20 0 -11 7 -20 15 -20 11 0 15 -12 15 -45 0 -41 2 -45 25 -45 23 0 25 4 25 45 l0 45 45 0 c38 0 45 3 45 20 0 17 -7 20 -45 20 l-45 0 0 118 c0 130 5 142 57 142 26 0 33 4 33 20 0 18 -7 20 -54 20 -45 0 -58 -4 -70 -22z"/>
 <path d="M1613 15848 c-40 -81 -93 -242 -93 -283 0 -9 10 -15 25 -15 20 0 25 6 30 38 7 39 58 191 74 219 7 14 12 9 29 -28 20 -45 42 -110 62 -186 8 -32 16 -43 30 -43 29 0 26 44 -9 149 -46 138 -72 185 -102 189 -21 2 -29 -4 -46 -40z"/>
 <path d="M2192 15878 c-9 -9 -12 -76 -12 -240 l0 -228 25 0 25 0 0 220 0 220 25 0 c18 0 25 5 25 20 0 16 -7 20 -38 20 -21 0 -43 -5 -50 -12z"/>
 <path d="M2346 15868 c-13 -18 -16 -51 -16 -150 0 -121 -1 -128 -20 -128 -13 0 -20 -7 -20 -20 0 -13 7 -20 20 -20 17 0 20 -7 20 -45 0 -41 2 -45 25 -45 23 0 25 4 25 45 l0 45 45 0 c38 0 45 3 45 20 0 17 -7 20 -45 20 l-45 0 0 118 c0 130 5 142 57 142 26 0 33 4 33 20 0 18 -7 20 -54 20 -45 0 -58 -4 -70 -22z"/>
 <path d="M2520 15720 l0 -170 25 0 25 0 0 170 0 170 -25 0 -25 0 0 -170z"/>
 <path d="M3380 15655 l0 -235 130 0 130 0 0 25 0 25 -105 0 -105 0 0 80 0 80 100 0 100 0 0 25 0 25 -100 0 -100 0 0 80 0 80 110 0 110 0 0 25 0 25 -135 0 -135 0 0 -235z"/>
 <path d="M3710 15720 l0 -170 25 0 c14 0 25 4 25 9 0 5 19 2 42 -6 59 -20 121 -10 148 24 18 23 20 40 20 169 0 137 -1 144 -20 144 -19 0 -20 -7 -20 -115 0 -160 -28 -208 -105 -182 -62 21 -65 28 -65 169 l0 128 -25 0 -25 0 0 -170z"/>
 <path d="M4367 15883 c-4 -3 -7 -80 -7 -170 l0 -163 25 0 c16 0 25 6 25 15 0 19 9 19 34 0 11 -8 35 -15 53 -15 29 0 33 3 33 25 0 22 -4 25 -34 25 -21 0 -42 9 -60 25 -25 23 -26 27 -26 145 0 110 -2 120 -18 120 -10 0 -22 -3 -25 -7z"/>
 <path d="M5350 15792 c0 -55 3 -160 7 -235 6 -133 7 -137 28 -137 26 0 37 12 55 60 15 41 29 74 64 153 14 32 26 63 26 70 1 7 11 -13 24 -43 13 -30 32 -75 43 -100 11 -25 26 -61 33 -80 18 -46 29 -60 50 -60 23 0 28 38 36 278 l7 192 -26 0 -27 0 -1 -117 c-1 -143 -12 -237 -23 -208 -9 23 -17 42 -46 107 -11 27 -25 59 -30 74 -8 20 -16 25 -36 22 -15 -2 -31 -10 -35 -18 -18 -35 -39 -84 -39 -92 0 -5 -9 -30 -21 -55 -31 -68 -39 -41 -39 135 l0 152 -25 0 c-25 0 -25 0 -25 -98z"/>
 <path d="M6140 15719 l0 -171 33 5 c17 3 51 0 74 -6 31 -8 52 -8 82 2 62 18 71 44 71 206 l0 135 -25 0 -25 0 0 -124 c0 -68 -3 -132 -6 -141 -4 -8 -19 -22 -35 -30 -25 -13 -32 -13 -73 5 l-46 19 0 136 0 135 -25 0 -25 0 0 -171z"/>
 <path d="M6477 15883 c-4 -3 -7 -80 -7 -170 l0 -163 25 0 25 0 0 170 c0 158 -1 170 -18 170 -10 0 -22 -3 -25 -7z"/>
 <path d="M6632 15865 c-7 -15 -12 -77 -12 -150 0 -118 -1 -125 -20 -125 -13 0 -20 -7 -20 -20 0 -13 7 -20 20 -20 17 0 20 -7 20 -45 0 -41 2 -45 25 -45 23 0 25 4 25 45 l0 45 40 0 c33 0 40 3 40 20 0 17 -7 20 -40 20 l-40 0 0 124 c0 133 1 136 56 136 17 0 24 6 24 20 0 18 -7 20 -53 20 -48 0 -55 -3 -65 -25z"/>
 <path d="M7140 15720 l0 -170 25 0 c15 0 25 6 25 14 0 13 4 13 28 0 15 -7 42 -14 60 -14 28 0 32 3 32 25 0 22 -4 25 -34 25 -19 0 -45 9 -60 21 -26 20 -26 22 -26 145 l0 124 -25 0 -25 0 0 -170z"/>
 <path d="M7360 15720 l0 -170 25 0 25 0 0 170 0 170 -25 0 -25 0 0 -170z"/>
 <path d="M7490 15720 c0 -161 1 -170 19 -170 11 0 21 6 24 13 3 9 8 8 22 -3 12 -10 40 -15 81 -15 54 0 66 3 86 25 21 23 23 34 26 172 l4 148 -26 0 -26 0 0 -117 c0 -142 -4 -160 -41 -179 -26 -13 -33 -13 -66 1 -21 9 -41 21 -45 28 -4 7 -8 69 -8 140 l0 127 -25 0 -25 0 0 -170z"/>
 <path d="M9226 15868 c-13 -18 -16 -51 -16 -150 0 -107 -2 -128 -15 -128 -8 0 -15 -9 -15 -20 0 -11 7 -20 15 -20 11 0 15 -12 15 -45 0 -41 2 -45 25 -45 23 0 25 4 25 45 l0 45 45 0 c38 0 45 3 45 20 0 17 -7 20 -45 20 l-45 0 0 118 c0 130 5 142 57 142 26 0 33 4 33 20 0 18 -7 20 -54 20 -45 0 -58 -4 -70 -22z"/>
 <path d="M9720 15720 c0 -163 1 -170 20 -170 11 0 20 4 20 9 0 5 19 2 43 -6 48 -17 110 -12 135 10 15 13 20 13 36 2 28 -21 99 -29 139 -16 49 16 57 47 57 207 l0 134 -25 0 -25 0 0 -138 0 -138 -29 -17 c-24 -14 -35 -15 -58 -6 -60 23 -63 30 -63 171 l0 128 -25 0 -25 0 0 -126 c0 -131 -7 -160 -43 -173 -24 -9 -86 11 -99 32 -4 7 -8 69 -8 140 l0 127 -25 0 -25 0 0 -170z"/>
 <path d="M2527 15493 c-4 -3 -7 -19 -7 -35 0 -24 4 -28 29 -28 34 0 51 31 31 55 -13 16 -42 20 -53 8z"/>
 <path d="M6471 15486 c-22 -26 -9 -51 27 -54 32 -3 33 -2 30 30 -2 25 -8 34 -24 36 -11 2 -26 -4 -33 -12z"/>
 <path d="M7362 15491 c-8 -4 -12 -19 -10 -32 2 -19 9 -24 33 -24 24 0 31 5 33 24 4 23 -11 41 -33 41 -5 0 -16 -4 -23 -9z"/>
 <path d="M9095 15134 c-197 -14 -396 -62 -457 -109 -53 -42 -58 -68 -58 -273 l0 -188 68 8 c37 5 204 10 372 11 274 2 311 0 365 -17 66 -20 110 -47 125 -76 21 -40 30 -119 19 -177 -18 -96 -67 -133 -335 -252 -39 -17 -73 -31 -77 -31 -18 0 -202 -94 -267 -137 -160 -105 -235 -217 -281 -418 -18 -79 -18 -369 0 -445 30 -124 72 -228 109 -268 6 -7 12 -17 12 -22 0 -13 110 -119 131 -125 10 -4 19 -11 19 -16 0 -5 7 -9 15 -9 8 0 15 -4 15 -8 0 -8 133 -61 205 -81 73 -21 257 -41 375 -41 115 0 324 22 390 41 176 50 217 74 242 139 13 36 17 79 17 213 l1 168 -177 -8 c-301 -13 -529 -9 -597 11 -80 25 -130 75 -139 140 -16 112 20 182 122 243 36 21 70 40 75 42 6 2 40 17 76 33 36 16 74 33 85 38 79 32 253 119 315 157 132 81 236 201 276 318 59 175 58 511 -3 700 -43 135 -160 281 -263 332 -106 51 -108 52 -270 89 -63 14 -392 26 -505 18z"/>
 <path d="M13 15083 c-10 -4 -13 -267 -13 -1268 l0 -1264 43 -6 c235 -32 390 -45 597 -51 153 -4 214 -2 285 10 158 28 214 43 283 76 206 101 308 261 347 544 26 187 16 380 -29 550 -28 106 -92 220 -165 293 -37 38 -142 113 -157 113 -3 0 -20 6 -37 13 -110 47 -234 61 -462 53 -99 -3 -211 -11 -250 -16 -93 -12 -185 -28 -212 -36 l-23 -6 0 501 0 501 -97 -1 c-54 0 -104 -3 -110 -6z m919 -1149 c217 -37 319 -131 379 -349 19 -69 22 -105 22 -260 0 -155 -3 -191 -22 -260 -30 -109 -67 -181 -121 -236 -62 -63 -109 -86 -240 -115 -76 -16 -457 -20 -554 -4 -34 5 -87 12 -119 15 l-57 6 0 574 c0 316 4 576 8 579 18 11 163 36 272 47 63 6 117 13 119 15 11 11 231 2 313 -12z"/>
 <path d="M2618 15078 c-9 -7 -26 -35 -38 -63 -13 -27 -36 -79 -52 -115 -17 -36 -39 -87 -49 -115 -11 -27 -23 -59 -28 -70 -5 -11 -16 -36 -25 -57 -9 -20 -16 -43 -16 -51 0 -9 -4 -18 -9 -22 -5 -3 -13 -20 -17 -37 -3 -18 -10 -39 -14 -48 -23 -46 -90 -232 -111 -310 -6 -19 -18 -57 -29 -85 -10 -27 -28 -84 -40 -125 -12 -41 -33 -111 -47 -155 -13 -44 -33 -109 -43 -145 -10 -36 -25 -87 -33 -115 -8 -27 -18 -66 -22 -85 -3 -19 -10 -46 -14 -60 -15 -45 -31 -104 -51 -195 -11 -49 -27 -118 -36 -153 -8 -34 -22 -99 -30 -145 -9 -45 -20 -102 -25 -127 -4 -25 -15 -90 -24 -144 -9 -55 -18 -110 -21 -123 l-6 -24 113 3 c113 3 114 3 127 31 7 15 17 49 22 75 15 85 41 226 50 267 4 22 15 76 24 120 24 124 44 216 56 260 6 22 17 65 25 95 34 137 44 178 55 215 6 22 16 58 21 80 6 21 21 73 33 115 13 41 32 102 41 135 23 78 143 444 155 470 4 11 16 43 26 70 9 28 21 54 26 59 4 6 8 16 8 24 0 13 21 66 41 104 5 10 9 23 9 28 0 10 18 55 55 134 l13 29 7 -24 c4 -13 20 -51 35 -84 15 -33 46 -112 70 -175 23 -63 46 -124 50 -135 5 -11 25 -69 46 -130 20 -60 42 -126 49 -145 8 -19 23 -69 35 -110 12 -41 30 -100 40 -130 23 -69 55 -176 76 -255 8 -33 27 -103 41 -155 25 -92 32 -123 68 -280 9 -41 21 -93 27 -115 5 -22 15 -71 23 -110 7 -38 20 -104 28 -145 8 -41 25 -130 38 -197 l23 -123 98 0 c121 0 124 3 108 123 -5 45 -14 100 -19 122 -5 22 -14 65 -20 95 -35 180 -53 270 -62 305 -23 88 -30 114 -53 210 -35 144 -72 281 -96 354 -11 35 -20 70 -20 77 0 8 -4 22 -9 32 -6 9 -17 44 -27 77 -20 72 -121 382 -134 410 -5 11 -16 43 -25 70 -10 28 -21 59 -25 70 -4 11 -16 43 -25 70 -10 28 -22 54 -26 60 -5 5 -9 16 -9 25 -1 8 -9 33 -20 55 -11 22 -19 43 -20 47 0 4 -11 32 -25 62 -14 30 -25 57 -25 60 0 3 -12 31 -26 63 -15 32 -39 87 -55 123 l-27 65 -109 3 c-77 2 -113 -1 -125 -10z"/>
 <path d="M3995 15075 c-64 -32 -60 61 -63 -1312 l-2 -1253 728 0 729 0 33 23 c52 34 58 68 59 295 l1 202 -455 0 -455 0 0 240 0 240 350 0 c292 0 356 3 380 15 58 30 60 39 60 282 l0 223 -395 0 -395 0 0 264 0 265 423 3 c306 3 430 7 452 16 59 24 65 49 65 293 l0 219 -742 0 c-638 0 -747 -3 -773 -15z"/>
 <path d="M5905 15080 c-32 -13 -64 -48 -71 -77 -8 -31 2 -621 16 -938 11 -252 33 -681 55 -1060 9 -143 18 -313 22 -377 l6 -118 357 0 c377 0 392 2 432 47 17 20 58 152 77 253 5 25 16 70 24 100 8 30 22 89 31 130 17 72 66 281 86 365 23 96 69 293 76 325 l7 35 9 -35 c9 -34 25 -105 53 -225 7 -33 20 -87 29 -120 8 -33 29 -118 46 -190 16 -71 34 -146 40 -165 11 -41 46 -179 66 -265 32 -139 46 -202 51 -227 l5 -28 342 0 c321 0 343 1 373 20 64 38 58 -11 123 1090 15 254 28 697 34 1103 l5 368 -277 -3 -278 -3 -29 -28 -30 -27 -6 -733 c-6 -745 -16 -1068 -30 -1012 -4 17 -17 68 -28 115 -12 47 -26 101 -31 120 -13 46 -49 191 -66 260 -7 30 -18 73 -23 95 -6 22 -18 69 -27 105 -8 36 -21 90 -29 120 -7 30 -23 93 -34 140 -12 47 -25 99 -30 115 -6 17 -13 47 -17 68 l-7 39 -221 -4 c-193 -3 -224 -5 -248 -21 -27 -18 -62 -93 -73 -157 -3 -19 -10 -46 -15 -60 -5 -14 -20 -77 -35 -140 -48 -210 -57 -245 -66 -275 -5 -16 -23 -88 -39 -160 -17 -71 -35 -146 -40 -165 -5 -19 -17 -66 -26 -105 -25 -111 -27 -115 -35 -80 -4 17 -7 427 -8 913 l-1 882 -262 -1 c-145 0 -272 -4 -283 -9z"/>
 <path d="M3920 11229 c-69 -4 -138 -11 -155 -14 -16 -4 -57 -10 -90 -15 -134 -19 -289 -50 -380 -75 -82 -23 -137 -36 -157 -38 -10 -1 -18 -4 -18 -8 0 -3 -21 -12 -47 -19 -94 -26 -311 -112 -472 -188 -18 -8 -39 -15 -47 -15 -8 0 -12 -3 -9 -6 3 -2 -23 -19 -57 -36 -124 -62 -400 -230 -418 -255 -3 -4 -17 -13 -31 -21 -15 -8 -42 -26 -60 -41 -19 -15 -74 -60 -124 -100 -49 -40 -93 -77 -97 -83 -4 -5 -8 -7 -8 -4 0 4 -25 -17 -55 -46 -30 -29 -57 -50 -60 -47 -3 3 -5 1 -5 -5 0 -13 -117 -133 -130 -133 -5 0 -10 -4 -10 -9 0 -4 -16 -25 -36 -46 -20 -21 -68 -77 -107 -124 -39 -47 -74 -88 -77 -91 -3 -3 -16 -20 -29 -38 -12 -18 -27 -29 -33 -26 -7 4 -8 2 -4 -5 4 -6 -5 -28 -21 -49 -56 -72 -187 -273 -243 -374 -51 -91 -200 -400 -200 -414 0 -3 -6 -20 -14 -37 -7 -18 -19 -48 -26 -67 -7 -19 -19 -48 -26 -65 -19 -46 -74 -228 -74 -246 0 -8 -4 -19 -9 -25 -5 -5 -11 -27 -13 -49 -2 -22 -7 -46 -11 -52 -14 -22 -60 -262 -84 -438 -21 -151 -25 -718 -6 -865 19 -142 53 -351 63 -385 4 -16 16 -66 25 -110 9 -44 21 -87 25 -96 5 -9 12 -34 16 -55 3 -22 10 -43 14 -49 3 -5 15 -39 25 -75 10 -36 22 -69 27 -74 4 -6 8 -17 8 -25 0 -9 7 -29 15 -45 8 -15 15 -37 15 -47 0 -11 5 -19 10 -19 6 0 10 -7 10 -16 0 -34 153 -353 228 -477 23 -37 42 -69 42 -71 0 -3 23 -43 50 -91 28 -48 50 -91 50 -96 0 -5 4 -9 9 -9 5 0 14 -12 20 -27 6 -16 22 -46 36 -68 37 -59 56 -95 51 -95 -3 0 12 -25 34 -57 22 -31 40 -62 40 -70 0 -7 6 -13 14 -13 9 0 13 -7 11 -20 -2 -11 1 -20 6 -20 6 0 8 -4 5 -9 -4 -5 -2 -11 2 -13 11 -4 75 -105 102 -160 11 -24 38 -70 59 -103 20 -33 55 -91 76 -130 21 -38 43 -79 49 -90 7 -11 24 -39 39 -62 15 -24 27 -47 27 -52 0 -5 3 -11 8 -13 4 -1 15 -19 26 -38 45 -83 81 -148 103 -183 14 -22 22 -45 19 -53 -4 -9 -1 -12 5 -9 6 4 13 -2 16 -14 3 -12 8 -21 12 -21 3 0 18 -21 31 -47 14 -27 28 -50 31 -53 4 -3 23 -35 42 -72 20 -37 57 -102 83 -145 26 -43 57 -96 69 -118 12 -22 50 -88 83 -146 34 -58 62 -111 62 -117 0 -6 4 -12 8 -14 7 -3 38 -55 101 -173 9 -16 30 -50 47 -75 16 -25 38 -62 49 -82 10 -20 23 -34 28 -31 6 3 7 1 3 -6 -4 -6 -2 -18 4 -26 6 -8 8 -20 4 -26 -4 -7 -3 -9 3 -6 6 4 23 -18 39 -51 15 -31 35 -65 44 -75 16 -20 51 -78 101 -172 17 -33 49 -87 70 -121 22 -34 39 -64 39 -68 0 -3 11 -23 23 -44 25 -38 60 -101 93 -162 11 -19 22 -37 25 -40 3 -3 9 -12 12 -20 4 -8 21 -37 37 -65 17 -27 36 -61 43 -75 6 -14 20 -34 30 -45 10 -11 21 -33 24 -48 3 -15 8 -25 11 -22 3 3 13 -12 23 -33 10 -20 32 -59 49 -87 17 -27 36 -61 43 -75 6 -14 17 -31 24 -38 7 -7 13 -17 13 -22 0 -5 23 -45 50 -89 28 -44 50 -83 50 -85 0 -2 23 -42 50 -89 28 -47 50 -89 50 -95 0 -5 6 -15 14 -21 8 -7 22 -26 31 -44 9 -18 22 -41 28 -52 7 -11 34 -59 61 -105 72 -125 139 -234 147 -240 14 -11 38 -68 31 -75 -4 -5 -2 -5 5 -1 7 4 17 -2 23 -15 6 -11 18 -28 25 -37 196 -246 291 -331 489 -441 30 -17 62 -31 70 -31 9 0 16 -4 16 -9 0 -5 15 -13 33 -16 17 -4 37 -10 42 -14 24 -17 201 -63 335 -87 261 -47 220 -46 2556 -51 l2202 -4 5 22 c3 11 3 18 0 15 -7 -7 -83 113 -83 132 0 6 -4 12 -9 12 -5 0 -16 15 -26 33 -9 17 -22 41 -28 52 -67 114 -107 185 -107 189 0 2 -25 45 -55 94 -30 50 -55 95 -55 101 0 6 -4 11 -9 11 -5 0 -13 9 -16 21 -4 11 -28 55 -54 97 -26 42 -65 111 -87 152 -21 41 -42 77 -46 80 -13 10 -68 120 -61 120 5 0 0 5 -9 10 -9 6 -27 30 -39 55 -12 24 -25 42 -29 40 -3 -2 -6 4 -7 13 -1 17 -17 45 -94 172 -21 36 -49 84 -61 107 -11 23 -24 40 -28 38 -3 -2 -7 5 -7 16 -1 10 -9 26 -17 35 -9 8 -16 22 -16 30 0 8 -4 14 -9 14 -5 0 -12 11 -15 25 -4 17 -11 23 -19 19 -7 -4 -9 -4 -5 1 8 8 -16 59 -62 131 -16 26 -27 50 -25 54 3 5 -2 10 -10 14 -8 3 -15 11 -15 19 0 7 -9 23 -19 34 -11 11 -21 29 -23 39 -2 10 -10 27 -18 37 -21 24 -54 81 -90 154 -18 34 -35 63 -38 65 -4 2 -16 19 -26 38 -11 19 -29 54 -42 76 -12 23 -50 87 -83 142 -33 55 -62 106 -63 113 -2 7 -11 22 -20 32 -9 11 -25 36 -34 56 -9 20 -34 63 -56 97 -21 34 -38 66 -38 72 0 6 -3 12 -7 14 -5 2 -19 26 -33 53 -13 28 -27 52 -31 55 -3 3 -14 20 -23 38 -9 17 -20 32 -24 32 -4 0 -8 10 -9 22 -1 11 -6 24 -11 27 -5 3 -17 22 -28 41 -10 19 -23 38 -27 41 -5 4 -10 18 -10 32 -1 14 -6 25 -10 24 -8 -2 -34 40 -127 208 -18 33 -44 77 -57 97 -13 21 -23 40 -23 42 0 2 -22 41 -50 85 -27 44 -50 83 -50 86 0 3 -11 23 -24 44 -14 21 -23 41 -20 43 2 3 -5 13 -16 23 -11 10 -20 24 -20 32 0 7 -4 13 -10 13 -5 0 -10 6 -10 13 -1 6 -16 37 -35 67 -19 30 -39 64 -45 75 -5 11 -36 65 -69 120 -33 55 -75 129 -93 165 -18 36 -36 67 -39 70 -4 3 -15 21 -25 40 -11 19 -29 49 -41 67 -24 33 -29 58 -14 68 6 3 16 18 24 33 30 59 52 97 58 102 3 3 21 32 39 65 18 33 40 71 50 85 9 14 20 32 23 40 4 8 21 38 37 65 16 28 35 61 42 75 7 14 15 27 18 30 4 4 18 28 64 115 6 11 14 22 17 25 4 3 21 33 39 67 17 35 35 61 39 59 4 -3 7 3 8 13 2 23 58 112 67 106 3 -3 4 -2 1 2 -4 6 66 144 87 170 5 7 7 17 3 23 -3 5 -2 10 3 10 14 0 73 120 66 132 -5 7 -2 8 6 3 10 -6 12 -4 7 8 -3 10 -2 17 4 17 5 0 13 10 18 23 5 12 18 43 29 67 64 142 102 242 105 275 1 11 8 26 15 33 6 7 12 22 12 32 0 10 7 31 15 46 8 16 15 39 15 52 0 12 4 30 9 40 19 36 59 200 65 263 2 20 7 42 12 50 4 8 12 39 16 69 40 280 41 305 45 644 2 232 0 360 -7 380 -6 17 -13 71 -16 121 -3 49 -8 93 -11 98 -3 5 -9 34 -14 65 -4 32 -15 91 -24 132 -9 41 -20 95 -24 120 -5 25 -14 56 -19 70 -5 14 -15 45 -22 70 -27 97 -53 170 -61 170 -5 0 -6 6 -3 14 3 8 -1 30 -9 48 -9 18 -19 44 -23 58 -4 14 -17 48 -29 75 -12 28 -35 83 -51 124 -15 40 -34 75 -41 78 -7 3 -11 9 -8 13 5 7 -51 128 -65 140 -3 3 -14 23 -25 45 -48 97 -209 351 -268 423 -17 22 -39 49 -47 62 -23 34 -110 144 -123 155 -7 6 -46 48 -87 95 -102 116 -101 115 -321 314 -75 69 -177 147 -334 257 -81 58 -280 179 -293 179 -7 0 -12 7 -12 16 0 8 -4 13 -9 10 -4 -3 -60 21 -122 53 -96 49 -189 91 -316 142 -13 5 -33 13 -45 19 -113 48 -387 127 -553 160 -243 47 -321 58 -495 70 -165 11 -417 11 -600 -1z m590 -979 c132 -14 416 -67 475 -90 11 -4 72 -24 135 -44 114 -37 139 -47 237 -92 29 -13 63 -28 77 -34 15 -5 26 -14 26 -20 0 -6 5 -8 10 -5 10 6 243 -121 291 -159 14 -12 35 -27 45 -34 55 -36 148 -103 163 -116 9 -8 52 -46 96 -84 124 -107 275 -263 346 -357 13 -16 26 -32 29 -35 3 -3 22 -27 41 -55 18 -27 36 -52 39 -55 3 -3 21 -30 40 -60 19 -30 38 -56 42 -58 5 -2 8 -8 8 -13 0 -5 18 -38 40 -74 22 -36 40 -70 40 -75 0 -6 5 -10 10 -10 6 0 10 -4 10 -9 0 -5 20 -51 44 -102 70 -151 86 -188 86 -200 0 -6 6 -25 14 -42 47 -104 115 -369 140 -542 47 -333 48 -505 0 -835 -13 -93 -24 -149 -54 -270 -17 -70 -72 -246 -86 -277 -8 -17 -14 -36 -14 -42 0 -6 -4 -19 -9 -29 -5 -9 -17 -35 -26 -57 -36 -83 -121 -252 -157 -311 -21 -34 -38 -66 -38 -73 0 -6 -4 -11 -10 -11 -5 0 -10 -6 -10 -13 0 -7 -11 -28 -23 -47 -22 -32 -52 -85 -103 -180 -11 -19 -22 -36 -26 -38 -5 -2 -8 -10 -8 -17 0 -7 -10 -26 -22 -42 -13 -15 -39 -58 -58 -95 -19 -38 -38 -68 -42 -68 -4 0 -8 -4 -8 -10 0 -9 -49 -100 -96 -175 -13 -22 -27 -47 -31 -55 -3 -8 -26 -47 -49 -86 -24 -39 -44 -75 -44 -81 0 -5 -10 -21 -22 -35 -13 -14 -24 -30 -25 -36 -1 -5 -26 -50 -54 -98 -28 -49 -65 -114 -82 -144 -16 -30 -40 -72 -53 -92 -13 -21 -24 -42 -24 -48 0 -5 -4 -10 -9 -10 -5 0 -13 -10 -16 -22 -4 -13 -17 -37 -29 -53 -11 -17 -34 -56 -51 -88 -16 -31 -34 -57 -41 -57 -6 0 -10 -13 -9 -30 1 -19 -3 -30 -12 -30 -7 0 -13 -6 -13 -14 0 -8 -3 -16 -7 -18 -5 -1 -19 -24 -32 -50 -14 -26 -29 -45 -33 -42 -4 3 -8 -2 -8 -11 0 -9 -12 -37 -27 -63 -15 -26 -35 -63 -45 -82 -10 -19 -27 -44 -38 -57 -11 -13 -20 -27 -20 -31 0 -12 -188 -341 -217 -379 -13 -18 -21 -33 -18 -33 3 0 1 -9 -5 -20 -6 -11 -16 -17 -25 -14 -8 4 -15 1 -15 -5 0 -6 5 -11 11 -11 7 0 4 -11 -7 -27 -10 -16 -28 -46 -40 -69 -12 -22 -34 -59 -48 -82 -14 -23 -26 -45 -26 -48 0 -4 -15 -30 -33 -58 -19 -28 -48 -78 -66 -110 -18 -32 -52 -92 -76 -132 -25 -41 -45 -76 -45 -79 0 -2 -16 -29 -35 -59 -19 -30 -35 -57 -35 -60 0 -3 -17 -34 -38 -68 -39 -63 -63 -106 -130 -226 -19 -35 -40 -66 -47 -69 -7 -2 -16 -20 -19 -39 -4 -19 -11 -34 -16 -34 -6 0 -10 -5 -10 -11 0 -7 -17 -39 -38 -73 -22 -34 -54 -88 -72 -121 -18 -33 -37 -65 -44 -70 -6 -6 -12 -16 -14 -24 -5 -22 -82 -151 -90 -151 -8 0 -71 101 -85 135 -4 11 -11 22 -15 25 -13 9 -52 87 -52 103 0 9 -6 20 -13 24 -15 9 -77 108 -77 123 0 6 -4 10 -9 10 -5 0 -12 14 -16 30 -4 17 -11 30 -16 30 -5 0 -11 11 -15 25 -3 14 -9 25 -13 25 -3 0 -15 17 -26 38 -11 20 -34 61 -52 90 -18 29 -33 54 -33 57 0 2 -19 37 -43 77 -23 40 -50 87 -60 103 -10 17 -36 62 -58 100 -22 39 -51 88 -65 110 -13 22 -29 50 -34 63 -6 13 -14 21 -18 18 -4 -2 -9 5 -9 16 -1 11 -13 38 -28 59 -14 22 -22 39 -18 39 5 0 3 4 -3 8 -7 4 -23 27 -36 52 -14 25 -49 86 -77 135 -29 50 -63 108 -75 130 -13 22 -38 67 -57 100 -18 33 -39 66 -46 73 -7 7 -13 18 -13 24 0 5 -8 22 -19 36 -10 15 -29 47 -43 72 -14 25 -68 121 -122 213 -53 92 -97 173 -99 179 -1 6 -12 22 -24 36 -13 14 -23 29 -23 33 0 5 -17 37 -38 71 -21 35 -42 70 -46 78 -4 8 -12 24 -19 35 -7 11 -39 67 -72 125 -33 57 -65 114 -72 125 -7 11 -15 27 -19 35 -4 8 -21 38 -39 65 -17 28 -46 79 -64 115 -18 36 -39 72 -45 80 -23 29 -89 145 -89 158 0 6 -3 12 -7 12 -8 0 -110 176 -110 190 0 6 -4 10 -10 10 -5 0 -10 4 -10 9 0 6 -40 78 -90 162 -49 83 -90 153 -90 155 0 3 -11 22 -25 44 -14 22 -23 40 -20 40 3 0 -2 9 -12 19 -10 11 -31 46 -48 78 -16 32 -35 64 -43 72 -7 7 -10 22 -7 32 4 12 2 19 -7 19 -14 0 -28 23 -88 135 -20 39 -42 79 -48 90 -34 62 -114 257 -149 365 -38 117 -70 257 -114 500 -19 103 -19 637 -1 735 8 39 22 115 33 170 46 239 140 524 229 687 5 9 26 48 45 87 21 41 43 71 52 71 8 0 13 6 10 13 -2 6 3 25 11 42 19 38 84 138 95 146 4 3 9 15 10 27 0 11 4 20 8 19 7 -2 31 23 64 69 46 63 75 96 75 85 0 -6 4 -11 9 -11 4 0 8 10 7 22 -1 15 30 54 94 122 91 97 221 216 235 216 3 0 21 15 38 33 18 18 45 41 60 52 34 23 97 70 114 85 7 5 14 10 16 10 2 0 42 25 88 55 46 30 89 55 96 55 6 0 13 4 15 9 4 10 241 126 342 167 38 15 77 27 87 27 11 -1 19 2 19 7 0 5 19 14 43 20 23 6 67 20 97 30 117 38 393 92 535 103 96 8 438 6 525 -3z m1870 -6693 c0 -10 4 -16 9 -13 5 3 15 -7 22 -22 25 -48 102 -187 108 -192 6 -5 34 -54 59 -105 8 -16 21 -37 27 -45 7 -8 25 -37 40 -65 14 -27 34 -63 44 -80 10 -16 33 -57 51 -90 18 -33 37 -63 42 -66 5 -3 10 -10 9 -15 0 -5 10 -25 21 -44 38 -62 46 -78 40 -85 -3 -3 3 -12 14 -19 11 -8 30 -36 43 -62 14 -27 27 -51 30 -54 12 -10 31 -50 31 -64 0 -8 6 -16 13 -19 6 -3 21 -22 32 -43 11 -22 37 -67 57 -102 21 -34 38 -65 38 -67 0 -3 12 -24 27 -48 15 -23 26 -50 25 -59 0 -10 5 -18 12 -18 12 0 46 -56 46 -74 0 -4 8 -15 18 -26 9 -10 28 -40 42 -67 14 -26 27 -50 30 -53 3 -3 10 -14 16 -25 47 -86 81 -146 101 -177 12 -21 23 -42 23 -48 0 -5 4 -10 9 -10 5 0 15 -17 22 -37 6 -20 20 -46 30 -56 12 -14 16 -28 12 -48 -3 -18 -1 -29 6 -29 6 0 11 6 11 13 0 6 7 3 16 -8 8 -11 12 -25 10 -32 -3 -7 0 -13 7 -13 7 0 23 -21 37 -47 13 -27 44 -80 67 -119 24 -39 43 -75 43 -80 0 -5 11 -22 25 -38 14 -16 25 -33 25 -37 0 -4 23 -46 50 -94 28 -48 50 -89 50 -91 0 -11 -2715 4 -2780 15 -112 18 -200 38 -208 46 -4 5 0 6 9 2 12 -4 17 1 17 16 0 12 34 80 76 150 42 71 76 131 76 134 0 3 20 38 45 77 25 40 45 78 45 84 0 7 5 12 10 12 6 0 10 4 10 8 0 17 87 161 94 155 3 -3 6 2 6 13 0 11 11 35 24 54 13 19 26 45 30 58 4 12 11 22 16 22 4 0 11 11 14 25 4 14 11 25 16 25 6 0 10 4 10 10 0 5 23 49 51 97 28 48 65 113 82 143 16 30 38 67 48 81 10 15 23 37 29 50 5 13 16 33 22 43 46 71 78 126 78 135 0 5 10 22 23 38 12 15 31 46 42 68 11 22 43 80 72 128 29 48 53 90 53 93 0 3 15 28 33 57 18 29 44 73 57 100 13 26 27 47 32 47 4 0 8 7 8 15 0 15 6 25 38 60 6 7 12 20 12 29 0 8 5 18 11 21 5 4 23 32 38 63 37 76 135 243 155 265 9 9 16 18 15 20 -2 8 24 61 52 106 31 52 48 55 49 8z"/>
 <path d="M4000 9554 c-115 -13 -208 -29 -265 -45 -16 -4 -57 -16 -90 -25 -33 -9 -69 -20 -80 -24 -11 -4 -42 -16 -70 -26 -27 -9 -77 -30 -110 -45 -33 -14 -71 -30 -85 -34 -13 -4 -30 -14 -38 -21 -7 -8 -22 -14 -33 -14 -10 0 -19 -4 -19 -9 0 -4 -39 -32 -87 -61 -49 -30 -100 -63 -114 -74 -15 -12 -39 -30 -54 -41 -48 -34 -97 -74 -123 -100 -13 -13 -28 -22 -33 -19 -5 3 -9 -1 -9 -9 0 -7 -21 -34 -47 -59 -58 -55 -142 -151 -163 -184 -8 -13 -21 -22 -28 -19 -7 3 -10 0 -7 -6 4 -5 -11 -33 -32 -62 -21 -29 -44 -63 -51 -77 -7 -14 -30 -54 -52 -90 -103 -167 -205 -439 -240 -640 -79 -447 -36 -832 140 -1255 18 -44 36 -82 40 -85 3 -3 14 -23 25 -45 10 -22 29 -57 42 -78 14 -22 22 -46 19 -54 -4 -10 -2 -13 8 -10 8 3 17 -1 20 -9 3 -9 32 -52 63 -96 32 -44 57 -87 55 -95 -2 -8 1 -12 7 -9 6 4 22 -7 37 -23 15 -17 31 -28 36 -25 5 3 7 2 6 -3 -6 -21 90 -128 166 -187 41 -31 80 -64 117 -98 16 -16 32 -28 36 -28 3 0 20 -10 37 -23 48 -36 215 -137 226 -137 6 0 13 -7 16 -15 4 -8 10 -12 15 -9 6 3 20 -1 32 -8 12 -8 72 -34 132 -57 61 -24 119 -47 130 -52 22 -9 53 -17 185 -48 175 -40 232 -46 470 -46 237 0 294 6 465 45 142 32 190 46 224 63 19 9 40 17 47 17 22 0 64 22 58 31 -3 5 2 6 10 3 9 -3 39 6 67 20 29 14 56 23 60 20 5 -3 9 -1 9 4 0 5 15 17 33 25 56 27 152 86 228 140 21 15 49 27 61 28 13 0 17 3 10 6 -7 3 11 23 46 51 53 43 189 169 216 200 6 7 25 28 42 46 63 67 181 231 246 341 23 39 112 221 128 263 7 17 16 32 21 32 5 0 6 6 3 13 -2 7 3 31 12 53 9 21 23 64 31 94 8 30 18 71 24 90 73 264 77 698 8 980 -26 105 -61 220 -76 250 -7 14 -13 31 -13 38 0 7 -4 20 -9 30 -5 9 -35 71 -67 137 -31 66 -61 122 -65 123 -5 2 -9 8 -9 14 0 6 -14 30 -30 55 -16 24 -30 48 -30 54 0 5 -4 9 -8 9 -4 0 -21 21 -38 47 -16 25 -34 51 -39 57 -48 51 -102 123 -99 134 1 7 0 8 -3 2 -3 -6 -31 15 -63 47 -77 77 -147 141 -194 178 -21 17 -44 35 -50 40 -6 6 -32 24 -58 40 -26 16 -45 32 -43 35 2 4 -1 7 -8 7 -7 0 -65 30 -129 67 -65 36 -122 66 -128 66 -6 0 -8 5 -5 11 4 6 1 9 -6 8 -14 -3 -104 28 -124 42 -5 3 -26 10 -45 14 -19 4 -39 10 -45 14 -14 10 -73 28 -115 36 -19 4 -48 10 -65 15 -115 32 -355 61 -498 59 -56 -1 -154 -7 -217 -15z"/>
 </g>
<g id="layer102" fill="#00a19b" stroke="none">
 <path d="M3920 11229 c-69 -4 -138 -11 -155 -14 -16 -4 -57 -10 -90 -15 -134 -19 -289 -50 -380 -75 -82 -23 -137 -36 -157 -38 -10 -1 -18 -4 -18 -8 0 -3 -21 -12 -47 -19 -94 -26 -311 -112 -472 -188 -18 -8 -39 -15 -47 -15 -8 0 -12 -3 -9 -6 3 -2 -23 -19 -57 -36 -124 -62 -400 -230 -418 -255 -3 -4 -17 -13 -31 -21 -15 -8 -42 -26 -60 -41 -19 -15 -74 -60 -124 -100 -49 -40 -93 -77 -97 -83 -4 -5 -8 -7 -8 -4 0 4 -25 -17 -55 -46 -30 -29 -57 -50 -60 -47 -3 3 -5 1 -5 -5 0 -13 -117 -133 -130 -133 -5 0 -10 -4 -10 -9 0 -4 -16 -25 -36 -46 -20 -21 -68 -77 -107 -124 -39 -47 -74 -88 -77 -91 -3 -3 -16 -20 -29 -38 -12 -18 -27 -29 -33 -26 -7 4 -8 2 -4 -5 4 -6 -5 -28 -21 -49 -56 -72 -187 -273 -243 -374 -51 -91 -200 -400 -200 -414 0 -3 -6 -20 -14 -37 -7 -18 -19 -48 -26 -67 -7 -19 -19 -48 -26 -65 -19 -46 -74 -228 -74 -246 0 -8 -4 -19 -9 -25 -5 -5 -11 -27 -13 -49 -2 -22 -7 -46 -11 -52 -14 -22 -60 -262 -84 -438 -21 -151 -25 -718 -6 -865 19 -142 53 -351 63 -385 4 -16 16 -66 25 -110 9 -44 21 -87 25 -96 5 -9 12 -34 16 -55 3 -22 10 -43 14 -49 3 -5 15 -39 25 -75 10 -36 22 -69 27 -74 4 -6 8 -17 8 -25 0 -9 7 -29 15 -45 8 -15 15 -37 15 -47 0 -11 5 -19 10 -19 6 0 10 -7 10 -16 0 -34 153 -353 228 -477 23 -37 42 -69 42 -71 0 -3 23 -43 50 -91 28 -48 50 -91 50 -96 0 -5 4 -9 9 -9 5 0 14 -12 20 -27 6 -16 22 -46 36 -68 37 -59 56 -95 51 -95 -3 0 12 -25 34 -57 22 -31 40 -62 40 -70 0 -7 6 -13 14 -13 9 0 13 -7 11 -20 -2 -11 1 -20 6 -20 6 0 8 -4 5 -9 -4 -5 -2 -11 2 -13 11 -4 75 -105 102 -160 11 -24 38 -70 59 -103 20 -33 55 -91 76 -130 21 -38 43 -79 49 -90 7 -11 24 -39 39 -62 15 -24 27 -47 27 -52 0 -5 3 -11 8 -13 4 -1 15 -19 26 -38 45 -83 81 -148 103 -183 14 -22 22 -45 19 -53 -4 -9 -1 -12 5 -9 6 4 13 -2 16 -14 3 -12 8 -21 12 -21 3 0 18 -21 31 -47 14 -27 28 -50 31 -53 4 -3 23 -35 42 -72 20 -37 57 -102 83 -145 26 -43 57 -96 69 -118 12 -22 50 -88 83 -146 34 -58 62 -111 62 -117 0 -6 4 -12 8 -14 7 -3 38 -55 101 -173 9 -16 30 -50 47 -75 16 -25 38 -62 49 -82 10 -20 23 -34 28 -31 6 3 7 1 3 -6 -4 -6 -2 -18 4 -26 6 -8 8 -20 4 -26 -4 -7 -3 -9 3 -6 6 4 23 -18 39 -51 15 -31 35 -65 44 -75 16 -20 51 -78 101 -172 17 -33 49 -87 70 -121 22 -34 39 -64 39 -68 0 -3 11 -23 23 -44 25 -38 60 -101 93 -162 11 -19 22 -37 25 -40 3 -3 9 -12 12 -20 4 -8 21 -37 37 -65 17 -27 36 -61 43 -75 6 -14 20 -34 30 -45 10 -11 21 -33 24 -48 3 -15 8 -25 11 -22 3 3 13 -12 23 -33 10 -20 32 -59 49 -87 17 -27 36 -61 43 -75 6 -14 17 -31 24 -38 7 -7 13 -17 13 -22 0 -5 23 -45 50 -89 28 -44 50 -83 50 -85 0 -2 23 -42 50 -89 28 -47 50 -89 50 -95 0 -5 6 -15 14 -21 8 -7 22 -26 31 -44 9 -18 22 -41 28 -52 7 -11 34 -59 61 -105 72 -125 139 -234 147 -240 14 -11 38 -68 31 -75 -4 -5 -2 -5 5 -1 7 4 17 -2 23 -15 6 -11 18 -28 25 -37 196 -246 291 -331 489 -441 30 -17 62 -31 70 -31 9 0 16 -4 16 -9 0 -5 15 -13 33 -16 17 -4 37 -10 42 -14 24 -17 201 -63 335 -87 261 -47 220 -46 2556 -51 l2202 -4 5 22 c3 11 3 18 0 15 -7 -7 -83 113 -83 132 0 6 -4 12 -9 12 -5 0 -16 15 -26 33 -9 17 -22 41 -28 52 -72 123 -107 185 -107 190 0 4 -10 21 -22 38 -12 17 -29 45 -38 61 -37 70 -56 101 -67 114 -7 7 -13 17 -13 22 0 5 -22 44 -48 87 -27 43 -66 112 -88 153 -21 41 -42 77 -46 80 -13 10 -68 120 -61 120 5 0 0 5 -9 10 -9 6 -27 30 -39 55 -12 24 -25 42 -29 40 -3 -2 -6 4 -7 13 -1 17 -17 45 -94 172 -21 36 -49 84 -61 107 -11 23 -24 40 -28 38 -3 -2 -7 5 -7 16 -1 10 -9 26 -17 35 -9 8 -16 22 -16 30 0 8 -4 14 -9 14 -5 0 -12 11 -15 25 -4 17 -11 23 -19 19 -7 -4 -9 -4 -5 1 8 8 -16 59 -62 131 -16 26 -27 50 -25 54 3 5 -2 10 -10 14 -8 3 -15 11 -15 19 0 7 -9 23 -19 34 -11 11 -21 29 -23 39 -2 10 -10 27 -18 37 -21 24 -54 81 -90 154 -18 34 -35 63 -38 65 -4 2 -16 19 -26 38 -11 19 -29 54 -42 76 -12 23 -50 87 -83 142 -33 55 -62 106 -63 113 -2 7 -11 22 -20 32 -9 11 -25 36 -34 56 -9 20 -34 63 -56 97 -21 34 -38 66 -38 72 0 6 -3 12 -7 14 -5 2 -19 26 -33 53 -13 28 -27 52 -31 55 -3 3 -14 20 -23 38 -9 17 -20 32 -24 32 -4 0 -8 10 -9 22 -1 11 -6 24 -11 27 -5 3 -17 22 -28 41 -10 19 -23 38 -27 41 -5 4 -10 18 -10 32 -1 14 -6 25 -10 24 -8 -2 -34 40 -127 208 -18 33 -44 77 -57 97 -13 21 -23 40 -23 42 0 2 -22 41 -50 85 -27 44 -50 83 -50 86 0 3 -11 23 -24 44 -14 21 -23 41 -20 43 2 3 -5 13 -16 23 -11 10 -20 24 -20 32 0 7 -4 13 -10 13 -5 0 -10 6 -10 13 -1 6 -16 37 -35 67 -19 30 -39 64 -45 75 -5 11 -36 65 -69 120 -33 55 -75 129 -93 165 -18 36 -36 67 -39 70 -4 3 -15 21 -25 40 -11 19 -29 49 -41 67 -24 33 -29 58 -14 68 6 3 16 18 24 33 30 59 52 97 58 102 3 3 21 32 39 65 18 33 40 71 50 85 9 14 20 32 23 40 4 8 21 38 37 65 16 28 35 61 42 75 7 14 15 27 18 30 4 4 18 28 64 115 6 11 14 22 17 25 4 3 21 33 39 67 17 35 35 61 39 59 4 -3 7 3 8 13 2 23 58 112 67 106 3 -3 4 -2 1 2 -4 6 66 144 87 170 5 7 7 17 3 23 -3 5 -2 10 3 10 14 0 73 120 66 132 -5 7 -2 8 6 3 10 -6 12 -4 7 8 -3 10 -2 17 4 17 5 0 13 10 18 23 5 12 18 43 29 67 64 142 102 242 105 275 1 11 8 26 15 33 6 7 12 22 12 32 0 10 7 31 15 46 8 16 15 39 15 52 0 12 4 30 9 40 19 36 59 200 65 263 2 20 7 42 12 50 4 8 12 39 16 69 40 280 41 305 45 644 2 232 0 360 -7 380 -6 17 -13 71 -16 121 -3 49 -8 93 -11 98 -3 5 -9 34 -14 65 -4 32 -15 91 -24 132 -9 41 -20 95 -24 120 -5 25 -14 56 -19 70 -5 14 -15 45 -22 70 -27 97 -53 170 -61 170 -5 0 -6 6 -3 14 3 8 -1 30 -9 48 -9 18 -19 44 -23 58 -4 14 -17 48 -29 75 -12 28 -35 83 -51 124 -15 40 -34 75 -41 78 -7 3 -11 9 -8 13 5 7 -51 128 -65 140 -3 3 -14 23 -25 45 -48 97 -209 351 -268 423 -17 22 -39 49 -47 62 -23 34 -110 144 -123 155 -7 6 -46 48 -87 95 -102 116 -101 115 -321 314 -75 69 -177 147 -334 257 -81 58 -280 179 -293 179 -7 0 -12 7 -12 16 0 8 -4 13 -9 10 -4 -3 -60 21 -122 53 -96 49 -189 91 -316 142 -13 5 -33 13 -45 19 -49 21 -284 95 -393 125 -77 20 -296 63 -440 85 -182 28 -544 36 -815 19z m590 -979 c132 -14 416 -67 475 -90 11 -4 72 -24 135 -44 114 -37 139 -47 237 -92 29 -13 63 -28 77 -34 15 -5 26 -14 26 -20 0 -6 5 -8 10 -5 10 6 243 -121 291 -159 14 -12 35 -27 45 -34 55 -36 148 -103 163 -116 9 -8 52 -46 96 -84 124 -107 275 -263 346 -357 13 -16 26 -32 29 -35 3 -3 22 -27 41 -55 18 -27 36 -52 39 -55 3 -3 21 -30 40 -60 19 -30 38 -56 42 -58 5 -2 8 -8 8 -13 0 -5 18 -38 40 -74 22 -36 40 -70 40 -75 0 -6 5 -10 10 -10 6 0 10 -4 10 -9 0 -5 20 -51 44 -102 70 -151 86 -188 86 -200 0 -6 6 -25 14 -42 47 -104 115 -369 140 -542 47 -333 48 -505 0 -835 -13 -93 -24 -149 -54 -270 -17 -70 -72 -246 -86 -277 -8 -17 -14 -36 -14 -42 0 -6 -4 -19 -9 -29 -5 -9 -17 -35 -26 -57 -36 -83 -121 -252 -157 -311 -21 -34 -38 -66 -38 -73 0 -6 -4 -11 -10 -11 -5 0 -10 -6 -10 -13 0 -7 -11 -28 -23 -47 -22 -32 -52 -85 -103 -180 -11 -19 -22 -36 -26 -38 -5 -2 -8 -10 -8 -17 0 -7 -10 -26 -22 -42 -13 -15 -39 -58 -58 -95 -19 -38 -38 -68 -42 -68 -4 0 -8 -4 -8 -10 0 -9 -49 -100 -96 -175 -13 -22 -27 -47 -31 -55 -3 -8 -26 -47 -49 -86 -24 -39 -44 -75 -44 -81 0 -5 -10 -21 -22 -35 -13 -14 -24 -30 -25 -36 -1 -5 -26 -50 -54 -98 -28 -49 -65 -114 -82 -144 -16 -30 -40 -72 -53 -92 -13 -21 -24 -42 -24 -48 0 -5 -4 -10 -9 -10 -5 0 -13 -10 -16 -22 -4 -13 -17 -37 -29 -53 -11 -17 -34 -56 -51 -88 -16 -31 -34 -57 -41 -57 -6 0 -10 -13 -9 -30 1 -19 -3 -30 -12 -30 -7 0 -13 -6 -13 -14 0 -8 -3 -16 -7 -18 -5 -1 -19 -24 -32 -50 -14 -26 -29 -45 -33 -42 -4 3 -8 -2 -8 -11 0 -9 -12 -37 -27 -63 -15 -26 -35 -63 -45 -82 -10 -19 -27 -44 -38 -57 -11 -13 -20 -27 -20 -31 0 -12 -188 -341 -217 -379 -13 -18 -21 -33 -18 -33 3 0 1 -9 -5 -20 -6 -11 -16 -17 -25 -14 -8 4 -15 1 -15 -5 0 -6 5 -11 11 -11 7 0 4 -11 -7 -27 -10 -16 -28 -46 -40 -69 -12 -22 -34 -59 -48 -82 -14 -23 -26 -45 -26 -48 0 -4 -15 -30 -33 -58 -19 -28 -48 -78 -66 -110 -18 -32 -52 -92 -76 -132 -25 -41 -45 -76 -45 -79 0 -2 -16 -29 -35 -59 -19 -30 -35 -57 -35 -60 0 -3 -17 -34 -38 -68 -39 -63 -63 -106 -130 -226 -19 -35 -40 -66 -47 -69 -7 -2 -16 -20 -19 -39 -4 -19 -11 -34 -16 -34 -6 0 -10 -5 -10 -11 0 -7 -17 -39 -38 -73 -22 -34 -54 -88 -72 -121 -18 -33 -37 -65 -44 -70 -6 -6 -12 -16 -14 -24 -5 -22 -82 -151 -90 -151 -8 0 -71 101 -85 135 -4 11 -11 22 -15 25 -13 9 -52 87 -52 103 0 9 -6 20 -13 24 -15 9 -77 108 -77 123 0 6 -4 10 -9 10 -5 0 -12 14 -16 30 -4 17 -11 30 -16 30 -5 0 -11 11 -15 25 -3 14 -9 25 -13 25 -3 0 -15 17 -26 38 -11 20 -34 61 -52 90 -18 29 -33 54 -33 57 0 2 -19 37 -43 77 -23 40 -50 87 -60 103 -10 17 -36 62 -58 100 -22 39 -51 88 -65 110 -13 22 -29 50 -34 63 -6 13 -14 21 -18 18 -4 -2 -9 5 -9 16 -1 11 -13 38 -28 59 -14 22 -22 39 -18 39 5 0 3 4 -3 8 -7 4 -23 27 -36 52 -14 25 -49 86 -77 135 -29 50 -63 108 -75 130 -13 22 -38 67 -57 100 -18 33 -39 66 -46 73 -7 7 -13 18 -13 24 0 5 -8 22 -19 36 -10 15 -29 47 -43 72 -14 25 -68 121 -122 213 -53 92 -97 173 -99 179 -1 6 -12 22 -24 36 -13 14 -23 29 -23 33 0 5 -17 37 -38 71 -21 35 -42 70 -46 78 -4 8 -12 24 -19 35 -7 11 -39 67 -72 125 -33 57 -65 114 -72 125 -7 11 -15 27 -19 35 -4 8 -21 38 -39 65 -17 28 -46 79 -64 115 -18 36 -39 72 -45 80 -23 29 -89 145 -89 158 0 6 -3 12 -7 12 -8 0 -110 176 -110 190 0 6 -4 10 -10 10 -5 0 -10 4 -10 9 0 6 -40 78 -90 162 -49 83 -90 153 -90 155 0 3 -11 22 -25 44 -14 22 -23 40 -20 40 3 0 -2 9 -12 19 -10 11 -31 46 -48 78 -16 32 -35 64 -43 72 -7 7 -10 22 -7 32 4 12 2 19 -7 19 -14 0 -28 23 -88 135 -20 39 -42 79 -48 90 -34 62 -114 257 -149 365 -38 117 -70 257 -114 500 -19 103 -19 637 -1 735 8 39 22 115 33 170 46 239 140 524 229 687 5 9 26 48 45 87 21 41 43 71 52 71 8 0 13 6 10 13 -2 6 3 25 11 42 19 38 84 138 95 146 4 3 9 15 10 27 0 11 4 20 8 19 7 -2 31 23 64 69 46 63 75 96 75 85 0 -6 4 -11 9 -11 4 0 8 10 7 22 -1 15 30 54 94 122 91 97 221 216 235 216 3 0 21 15 38 33 18 18 45 41 60 52 34 23 97 70 114 85 7 5 14 10 16 10 2 0 42 25 88 55 46 30 89 55 96 55 6 0 13 4 15 9 4 10 241 126 342 167 38 15 77 27 87 27 11 -1 19 2 19 7 0 5 19 14 43 20 23 6 67 20 97 30 117 38 393 92 535 103 96 8 438 6 525 -3z m1870 -6693 c0 -10 4 -16 9 -13 5 3 15 -7 22 -22 25 -48 102 -187 108 -192 6 -5 34 -54 59 -105 8 -16 21 -37 27 -45 7 -8 25 -37 40 -65 14 -27 34 -63 44 -80 10 -16 33 -57 51 -90 18 -33 37 -63 42 -66 5 -3 10 -10 9 -15 0 -5 10 -25 21 -44 38 -62 46 -78 40 -85 -3 -3 3 -12 14 -19 11 -8 30 -36 43 -62 14 -27 27 -51 30 -54 12 -10 31 -50 31 -64 0 -8 6 -16 13 -19 6 -3 21 -22 32 -43 11 -22 37 -67 57 -102 21 -34 38 -65 38 -67 0 -3 12 -24 27 -48 15 -23 26 -50 25 -59 0 -10 5 -18 12 -18 12 0 46 -56 46 -74 0 -4 8 -15 18 -26 9 -10 28 -40 42 -67 14 -26 27 -50 30 -53 3 -3 10 -14 16 -25 47 -86 81 -146 101 -177 12 -21 23 -42 23 -48 0 -5 4 -10 9 -10 5 0 15 -17 22 -37 6 -20 20 -46 30 -56 12 -14 16 -28 12 -48 -3 -18 -1 -29 6 -29 6 0 11 6 11 13 0 6 7 3 16 -8 8 -11 12 -25 10 -32 -3 -7 0 -13 7 -13 7 0 23 -21 37 -47 13 -27 44 -80 67 -119 24 -39 43 -75 43 -80 0 -5 11 -22 25 -38 14 -16 25 -33 25 -37 0 -4 23 -46 50 -94 28 -48 50 -89 50 -91 0 -11 -2715 4 -2780 15 -112 18 -200 38 -208 46 -4 5 0 6 9 2 12 -4 17 1 17 16 0 12 34 80 76 150 42 71 76 131 76 134 0 3 20 38 45 77 25 40 45 78 45 84 0 7 5 12 10 12 6 0 10 4 10 8 0 17 87 161 94 155 3 -3 6 2 6 13 0 11 11 35 24 54 13 19 26 45 30 58 4 12 11 22 16 22 4 0 11 11 14 25 4 14 11 25 16 25 6 0 10 4 10 10 0 5 23 49 51 97 28 48 65 113 82 143 16 30 38 67 48 81 10 15 23 37 29 50 5 13 16 33 22 43 46 71 78 126 78 135 0 5 10 22 23 38 12 15 31 46 42 68 11 22 43 80 72 128 29 48 53 90 53 93 0 3 15 28 33 57 18 29 44 73 57 100 13 26 27 47 32 47 4 0 8 7 8 15 0 15 6 25 38 60 6 7 12 20 12 29 0 8 5 18 11 21 5 4 23 32 38 63 37 76 135 243 155 265 9 9 16 18 15 20 -2 8 24 61 52 106 31 52 48 55 49 8z"/>
 <path d="M4000 9554 c-115 -13 -208 -29 -265 -45 -16 -4 -57 -16 -90 -25 -33 -9 -69 -20 -80 -24 -11 -4 -42 -16 -70 -26 -27 -9 -77 -30 -110 -45 -33 -14 -71 -30 -85 -34 -13 -4 -30 -14 -38 -21 -7 -8 -22 -14 -33 -14 -10 0 -19 -4 -19 -9 0 -4 -39 -32 -87 -61 -49 -30 -100 -63 -114 -74 -15 -12 -39 -30 -54 -41 -48 -34 -97 -74 -123 -100 -13 -13 -28 -22 -33 -19 -5 3 -9 -1 -9 -9 0 -7 -21 -34 -47 -59 -58 -55 -142 -151 -163 -184 -8 -13 -21 -22 -28 -19 -7 3 -10 0 -7 -6 4 -5 -11 -33 -32 -62 -21 -29 -44 -63 -51 -77 -7 -14 -30 -54 -52 -90 -103 -167 -205 -439 -240 -640 -79 -447 -36 -832 140 -1255 18 -44 36 -82 40 -85 3 -3 14 -23 25 -45 10 -22 29 -57 42 -78 14 -22 22 -46 19 -54 -4 -10 -2 -13 8 -10 8 3 17 -1 20 -9 3 -9 32 -52 63 -96 32 -44 57 -87 55 -95 -2 -8 1 -12 7 -9 6 4 22 -7 37 -23 15 -17 31 -28 36 -25 5 3 7 2 6 -3 -6 -21 90 -128 166 -187 41 -31 80 -64 117 -98 16 -16 32 -28 36 -28 3 0 20 -10 37 -23 48 -36 215 -137 226 -137 6 0 13 -7 16 -15 4 -8 10 -12 15 -9 6 3 20 -1 32 -8 12 -8 72 -34 132 -57 61 -24 119 -47 130 -52 22 -9 53 -17 185 -48 175 -40 232 -46 470 -46 237 0 294 6 465 45 142 32 190 46 224 63 19 9 40 17 47 17 22 0 64 22 58 31 -3 5 2 6 10 3 9 -3 39 6 67 20 29 14 56 23 60 20 5 -3 9 -1 9 4 0 5 15 17 33 25 56 27 152 86 228 140 21 15 49 27 61 28 13 0 17 3 10 6 -7 3 11 23 46 51 53 43 189 169 216 200 6 7 25 28 42 46 63 67 181 231 246 341 23 39 112 221 128 263 7 17 16 32 21 32 5 0 6 6 3 13 -2 7 3 31 12 53 9 21 23 64 31 94 8 30 18 71 24 90 73 264 77 698 8 980 -26 105 -61 220 -76 250 -7 14 -13 31 -13 38 0 7 -4 20 -9 30 -5 9 -35 71 -67 137 -31 66 -61 122 -65 123 -5 2 -9 8 -9 14 0 6 -14 30 -30 55 -16 24 -30 48 -30 54 0 5 -4 9 -8 9 -4 0 -21 21 -38 47 -16 25 -34 51 -39 57 -48 51 -102 123 -99 134 1 7 0 8 -3 2 -3 -6 -31 15 -63 47 -77 77 -147 141 -194 178 -21 17 -44 35 -50 40 -6 6 -32 24 -58 40 -26 16 -45 32 -43 35 2 4 -1 7 -8 7 -7 0 -65 30 -129 67 -65 36 -122 66 -128 66 -6 0 -8 5 -5 11 4 6 1 9 -6 8 -14 -3 -104 28 -124 42 -5 3 -26 10 -45 14 -19 4 -39 10 -45 14 -14 10 -73 28 -115 36 -19 4 -48 10 -65 15 -115 32 -355 61 -498 59 -56 -1 -154 -7 -217 -15z"/>
 </g>
<g id="layer103" fill="#73cac6" stroke="none">
 <path d="M4138 11233 c57 -2 147 -2 200 0 53 1 7 3 -103 3 -110 0 -154 -2 -97 -3z"/>
 <path d="M3797 11219 c-38 -4 -72 -10 -75 -14 -6 -6 117 4 188 15 l45 8 -45 0 c-25 -1 -76 -4 -113 -9z"/>
 <path d="M4560 11221 c67 -12 202 -22 162 -12 -18 5 -72 11 -120 14 -59 4 -72 3 -42 -2z"/>
 <path d="M3610 11190 c-20 -6 -21 -8 -5 -8 11 0 34 4 50 8 27 7 27 8 5 8 -14 0 -36 -4 -50 -8z"/>
 <path d="M4810 11190 c14 -4 34 -8 45 -8 l20 -1 -20 9 c-11 5 -31 8 -45 8 l-25 0 25 -8z"/>
 <path d="M3481 11169 c-24 -5 -46 -11 -49 -14 -9 -8 29 -4 83 10 56 14 33 17 -34 4z"/>
 <path d="M4925 11171 c11 -5 43 -11 70 -14 l50 -6 -50 14 c-27 7 -59 13 -70 13 l-20 1 20 -8z"/>
 <path d="M3330 11135 c-25 -7 -58 -16 -74 -19 -15 -4 -26 -9 -23 -12 4 -5 168 34 176 42 9 8 -36 2 -79 -11z"/>
 <path d="M5062 11145 c9 -9 170 -46 176 -41 2 3 -9 8 -24 12 -16 3 -54 13 -84 20 -58 15 -77 17 -68 9z"/>
 <path d="M3157 11089 c-9 -5 -22 -7 -27 -4 -6 3 -10 1 -10 -5 0 -12 52 -5 80 11 12 7 11 8 -5 8 -11 0 -28 -4 -38 -10z"/>
 <path d="M5265 11090 c11 -5 27 -9 35 -9 9 0 8 4 -5 9 -11 5 -27 9 -35 9 -9 0 -8 -4 5 -9z"/>
 <path d="M5350 11065 c46 -18 64 -17 25 0 -16 8 -37 14 -45 14 -8 0 1 -7 20 -14z"/>
 <path d="M2995 11035 l-30 -14 30 6 c17 3 37 9 45 14 27 15 -11 10 -45 -6z"/>
 <path d="M2915 11005 c-25 -12 -26 -14 -5 -9 28 7 60 23 45 23 -5 0 -23 -6 -40 -14z"/>
 <path d="M5529 11004 c18 -8 36 -13 39 -10 6 6 -43 26 -61 25 -7 0 3 -7 22 -15z"/>
 <path d="M2763 10947 c-53 -23 -88 -46 -43 -29 54 21 114 51 105 51 -5 0 -33 -10 -62 -22z"/>
 <path d="M5631 10966 c2 -2 32 -16 66 -30 65 -27 163 -71 198 -88 15 -8 17 -8 9 1 -12 13 -250 121 -266 121 -6 0 -9 -2 -7 -4z"/>
 <path d="M2615 10880 c-33 -16 -64 -26 -70 -23 -5 3 -5 0 1 -6 9 -10 27 -5 80 23 82 42 74 47 -11 6z"/>
 <path d="M5921 10836 c2 -1 34 -20 72 -40 52 -28 67 -33 67 -21 0 9 -4 14 -9 10 -5 -3 -34 8 -64 25 -46 25 -81 39 -66 26z"/>
 <path d="M2475 10811 c-152 -82 -405 -240 -405 -253 0 -4 28 12 63 36 82 56 253 159 328 196 32 17 59 32 59 35 0 8 -13 4 -45 -14z"/>
 <path d="M6140 10714 c41 -25 90 -55 108 -66 17 -11 32 -17 32 -15 0 7 -195 127 -206 127 -4 0 25 -21 66 -46z"/>
 <path d="M6310 10611 c46 -38 173 -124 166 -113 -3 6 -41 35 -84 64 -85 60 -121 81 -82 49z"/>
 <path d="M2034 10537 c-31 -18 -74 -54 -74 -62 0 -6 59 36 95 67 13 12 3 9 -21 -5z"/>
 <path d="M6511 10469 c14 -13 71 -60 125 -104 54 -44 180 -161 279 -260 99 -98 152 -148 118 -110 -91 103 -130 144 -208 215 -38 35 -95 86 -126 114 -61 56 -111 96 -173 140 -30 20 -34 22 -15 5z"/>
 <path d="M1913 10444 l-28 -26 33 22 c29 20 39 30 28 30 -3 0 -18 -12 -33 -26z"/>
 <path d="M1844 10392 c-17 -15 -45 -39 -62 -55 -18 -15 -32 -25 -32 -23 0 2 -25 -20 -55 -49 -30 -29 -56 -51 -58 -48 -3 2 -7 -3 -10 -12 -7 -16 8 -21 18 -5 7 11 167 155 209 188 16 12 27 24 25 26 -2 3 -18 -8 -35 -22z"/>
 <path d="M3960 10261 c-25 -3 97 -6 270 -6 173 0 293 3 265 7 -61 8 -473 7 -535 -1z"/>
 <path d="M3825 10245 c-5 -1 -44 -8 -85 -15 -222 -37 -505 -129 -725 -235 -698 -337 -1221 -940 -1459 -1680 -48 -148 -107 -424 -105 -484 1 -29 7 -5 34 149 10 52 26 129 37 170 11 41 24 89 28 105 29 109 121 347 170 437 5 9 26 48 45 87 21 42 43 71 52 71 9 0 13 6 10 14 -3 8 10 41 30 73 20 32 43 70 52 85 9 16 19 28 24 28 4 0 7 6 7 13 0 6 13 26 28 44 15 17 36 44 47 59 46 63 75 96 75 85 0 -6 4 -11 9 -11 4 0 8 10 7 22 -1 15 30 54 94 122 91 97 221 216 235 216 3 0 21 15 38 33 18 18 45 41 60 52 34 23 97 70 114 85 7 5 14 10 16 10 2 0 42 25 88 55 46 30 89 55 96 55 6 0 13 4 15 9 4 10 241 126 342 167 38 15 77 27 87 27 11 -1 19 2 19 7 0 5 19 14 43 20 23 7 62 18 87 27 77 26 206 55 415 92 42 7 44 9 15 9 -19 0 -39 -1 -45 -3z"/>
 <path d="M4570 10245 c8 -2 60 -11 115 -20 55 -10 137 -26 182 -37 45 -11 88 -18 95 -16 25 9 -325 79 -381 77 -14 -1 -19 -3 -11 -4z"/>
 <path d="M4985 10160 c3 -5 13 -10 21 -10 17 0 211 -64 264 -87 19 -8 58 -26 87 -39 29 -13 63 -28 77 -34 15 -5 26 -14 26 -20 0 -6 5 -8 10 -5 8 5 116 -49 190 -95 8 -6 29 -17 45 -26 17 -9 42 -26 56 -38 14 -12 35 -27 45 -34 55 -36 148 -103 163 -116 9 -8 52 -46 96 -84 124 -107 275 -263 346 -357 13 -16 26 -32 29 -35 3 -3 22 -27 41 -55 18 -27 36 -52 39 -55 3 -3 21 -30 40 -60 19 -30 38 -56 42 -58 5 -2 8 -8 8 -13 0 -5 18 -38 40 -74 22 -36 40 -70 40 -75 0 -6 5 -10 10 -10 6 0 10 -4 10 -9 0 -5 20 -51 44 -102 70 -151 86 -188 86 -200 0 -6 6 -25 14 -42 73 -164 141 -482 167 -781 7 -82 15 -143 17 -136 6 18 -16 278 -34 395 -64 418 -233 832 -485 1187 -346 486 -844 854 -1413 1042 -116 39 -131 42 -121 26z"/>
 <path d="M1429 9998 c-25 -29 -70 -82 -99 -118 -30 -36 -57 -67 -60 -70 -3 -3 -16 -20 -29 -38 -12 -18 -27 -29 -33 -26 -7 4 -8 2 -4 -5 4 -6 -5 -28 -22 -49 -37 -48 -66 -92 -59 -92 3 0 27 30 53 68 65 91 153 200 242 300 41 45 70 82 65 82 -5 0 -30 -24 -54 -52z"/>
 <path d="M7100 9916 c0 -8 110 -146 117 -146 7 0 -7 20 -55 80 -55 69 -62 76 -62 66z"/>
 <path d="M7287 9670 c21 -30 63 -91 93 -135 50 -75 84 -120 65 -85 -28 51 -158 240 -177 256 -12 10 -3 -6 19 -36z"/>
 <path d="M1072 9533 c-51 -76 -85 -133 -79 -133 2 0 28 37 57 83 30 45 58 88 63 95 5 6 7 12 4 12 -4 0 -24 -26 -45 -57z"/>
 <path d="M4000 9554 c-115 -13 -208 -29 -265 -45 -16 -4 -57 -16 -90 -25 -33 -9 -69 -20 -80 -24 -11 -4 -42 -16 -70 -26 -27 -9 -77 -30 -110 -45 -33 -14 -71 -30 -85 -34 -13 -4 -30 -14 -38 -21 -7 -8 -22 -14 -33 -14 -10 0 -19 -4 -19 -9 0 -4 -39 -32 -87 -61 -49 -30 -100 -63 -114 -74 -15 -12 -39 -30 -54 -41 -48 -34 -97 -74 -123 -100 -13 -13 -28 -22 -33 -19 -5 3 -9 -1 -9 -9 0 -7 -21 -34 -47 -59 -58 -55 -142 -151 -163 -184 -8 -13 -21 -22 -28 -19 -7 3 -10 0 -7 -6 4 -5 -11 -33 -32 -62 -21 -29 -44 -63 -51 -77 -7 -14 -30 -54 -52 -90 -56 -91 -106 -197 -151 -322 -45 -124 -89 -291 -88 -328 1 -18 4 -15 11 15 85 359 202 615 397 870 64 84 252 276 341 348 524 424 1241 568 1887 381 47 -13 88 -22 91 -20 3 3 -4 8 -14 12 -10 3 -30 10 -44 14 -14 5 -41 12 -60 15 -19 4 -48 10 -65 15 -115 32 -355 61 -498 59 -56 -1 -154 -7 -217 -15z"/>
 <path d="M4910 9447 c3 -2 52 -23 110 -46 548 -218 998 -695 1189 -1261 34 -104 47 -151 80 -300 l10 -45 -5 55 c-3 30 -15 89 -26 130 -11 41 -24 89 -28 105 -17 59 -24 80 -37 105 -7 14 -13 31 -13 38 0 7 -4 20 -9 30 -5 9 -35 71 -67 137 -31 66 -61 122 -65 123 -5 2 -9 8 -9 14 0 6 -13 30 -30 55 -16 24 -30 48 -30 54 0 5 -4 9 -8 9 -4 0 -21 21 -38 47 -16 25 -34 51 -39 57 -48 51 -102 123 -99 134 1 7 0 8 -3 2 -3 -6 -31 15 -63 47 -77 77 -147 141 -194 178 -21 17 -44 35 -50 40 -6 6 -32 24 -58 40 -26 16 -45 32 -43 35 2 4 -1 7 -8 7 -7 0 -65 30 -129 67 -65 36 -122 66 -128 66 -6 0 -8 5 -5 11 4 6 1 9 -6 8 -14 -3 -104 28 -124 42 -12 8 -82 24 -75 16z"/>
 <path d="M7486 9363 c53 -96 74 -129 74 -120 0 14 -99 187 -106 187 -3 0 12 -30 32 -67z"/>
 <path d="M968 9368 c-17 -27 -29 -58 -23 -58 3 0 14 18 25 40 22 43 21 54 -2 18z"/>
 <path d="M923 9288 c-19 -31 -33 -61 -29 -65 3 -3 14 13 26 36 19 38 21 57 3 29z"/>
 <path d="M7596 9160 c20 -39 38 -69 40 -67 6 6 -60 137 -69 137 -4 0 9 -32 29 -70z"/>
 <path d="M815 9074 c-20 -42 -34 -78 -32 -80 2 -2 19 29 37 69 18 39 35 75 37 80 2 4 2 7 -1 7 -3 0 -22 -34 -41 -76z"/>
 <path d="M7640 9076 c0 -11 42 -97 46 -93 5 5 -33 97 -41 97 -3 0 -5 -2 -5 -4z"/>
 <path d="M757 8948 c-26 -63 -28 -84 -2 -29 14 30 23 56 21 59 -3 2 -11 -11 -19 -30z"/>
 <path d="M7695 8948 c4 -13 11 -27 16 -33 5 -5 4 5 -2 23 -12 36 -24 44 -14 10z"/>
 <path d="M714 8844 c-12 -38 -27 -80 -40 -109 -17 -43 -34 -96 -34 -109 1 -6 21 43 45 108 25 66 43 122 40 124 -2 3 -7 -4 -11 -14z"/>
 <path d="M7746 8830 c3 -14 11 -32 16 -40 6 -10 7 -7 2 10 -3 14 -11 32 -16 40 -6 10 -7 7 -2 -10z"/>
 <path d="M7780 8730 c5 -18 12 -35 16 -39 10 -9 -6 53 -17 63 -5 6 -5 -4 1 -24z"/>
 <path d="M7827 8595 c3 -16 9 -37 14 -45 15 -27 10 11 -6 45 l-14 30 6 -30z"/>
 <path d="M617 8559 c-10 -28 -17 -56 -16 -63 0 -6 9 15 20 48 11 32 18 60 16 62 -2 2 -11 -19 -20 -47z"/>
 <path d="M7856 8495 c8 -37 14 -45 14 -19 0 10 -5 26 -10 34 -8 11 -9 7 -4 -15z"/>
 <path d="M587 8463 c-4 -3 -7 -18 -6 -32 1 -26 1 -25 10 3 9 31 7 41 -4 29z"/>
 <path d="M7880 8405 c0 -11 5 -27 10 -35 8 -12 10 -12 10 5 0 11 -5 27 -10 35 -8 12 -10 12 -10 -5z"/>
 <path d="M555 8330 c-4 -17 -5 -34 -2 -36 2 -3 7 10 11 27 8 42 0 50 -9 9z"/>
 <path d="M7906 8295 c12 -67 24 -96 17 -40 -3 28 -10 57 -14 65 -6 9 -7 0 -3 -25z"/>
 <path d="M537 8253 c-9 -30 -19 -118 -14 -113 7 7 28 123 23 127 -2 3 -6 -4 -9 -14z"/>
 <path d="M7931 8175 c0 -11 4 -29 9 -40 8 -18 9 -18 9 5 0 14 -4 32 -9 40 -8 12 -10 12 -9 -5z"/>
 <path d="M7957 8025 c3 -33 7 -62 9 -64 8 -9 2 85 -6 104 -6 13 -7 -2 -3 -40z"/>
 <path d="M495 8015 c-4 -31 -5 -58 -2 -61 3 -3 9 20 12 51 4 31 5 58 2 61 -3 3 -9 -20 -12 -51z"/>
 <path d="M7972 7920 c0 -19 2 -27 5 -17 2 9 2 25 0 35 -3 9 -5 1 -5 -18z"/>
 <path d="M475 7845 c-4 -47 -5 -88 -2 -91 2 -3 8 34 12 81 4 48 5 89 2 91 -3 3 -8 -33 -12 -81z"/>
 <path d="M7987 7770 c3 -47 7 -87 9 -89 8 -9 2 135 -6 154 -6 13 -7 -11 -3 -65z"/>
 <path d="M2157 7795 c-22 -135 -37 -469 -21 -453 3 4 6 57 6 120 0 62 7 167 14 232 14 115 14 185 1 101z"/>
 <path d="M1437 7733 c-9 -86 -7 -480 1 -553 4 -30 7 97 7 283 0 185 0 337 -1 337 -1 0 -4 -30 -7 -67z"/>
 <path d="M6308 7705 c9 -115 9 -353 0 -475 -5 -73 -4 -89 4 -70 16 35 16 576 0 610 -9 19 -9 5 -4 -65z"/>
 <path d="M464 7610 c0 -58 1 -81 3 -52 2 28 2 76 0 105 -2 28 -3 5 -3 -53z"/>
 <path d="M7993 7630 c0 -25 2 -35 4 -22 2 12 2 32 0 45 -2 12 -4 2 -4 -23z"/>
 <path d="M7022 7285 c-14 -154 -41 -334 -67 -440 -8 -33 -19 -80 -25 -105 -14 -60 -58 -197 -76 -237 -8 -17 -14 -36 -14 -42 0 -6 -4 -19 -9 -29 -5 -9 -17 -35 -26 -57 -36 -83 -121 -252 -157 -311 -21 -34 -38 -66 -38 -73 0 -6 -4 -11 -10 -11 -5 0 -10 -6 -10 -13 0 -7 -11 -28 -23 -47 -22 -32 -52 -85 -103 -180 -11 -19 -22 -36 -26 -38 -5 -2 -8 -10 -8 -17 0 -7 -10 -26 -22 -42 -13 -15 -39 -58 -58 -95 -19 -38 -38 -68 -42 -68 -4 0 -8 -4 -8 -10 0 -9 -49 -100 -96 -175 -13 -22 -27 -47 -31 -55 -3 -8 -26 -47 -49 -86 -24 -39 -44 -75 -44 -81 0 -5 -10 -21 -22 -35 -13 -14 -24 -30 -25 -36 -1 -5 -26 -50 -54 -98 -28 -49 -65 -114 -82 -144 -16 -30 -40 -72 -53 -92 -13 -21 -24 -42 -24 -48 0 -5 -4 -10 -9 -10 -5 0 -13 -10 -16 -22 -4 -13 -17 -37 -29 -53 -11 -17 -34 -56 -51 -88 -16 -31 -34 -57 -40 -57 -5 0 -11 -12 -12 -26 0 -14 3 -22 7 -18 4 5 101 171 215 369 114 198 240 416 280 485 559 968 600 1043 675 1230 95 238 160 514 186 786 8 90 14 176 12 191 -2 16 -9 -39 -16 -122z"/>
 <path d="M464 7325 c0 -55 1 -76 3 -47 2 29 2 74 0 100 -2 26 -3 2 -3 -53z"/>
 <path d="M7993 7305 c0 -22 2 -30 4 -17 2 12 2 30 0 40 -3 9 -5 -1 -4 -23z"/>
 <path d="M2146 7249 c5 -83 22 -177 22 -119 0 14 -6 66 -13 115 l-14 90 5 -86z"/>
 <path d="M7987 7166 c-4 -43 -6 -80 -3 -83 7 -8 18 79 14 122 -2 30 -5 21 -11 -39z"/>
 <path d="M472 7150 c0 -19 3 -60 8 -90 6 -48 7 -50 8 -15 0 22 -3 63 -8 90 -6 40 -7 43 -8 15z"/>
 <path d="M6285 7083 c-4 -27 -13 -73 -21 -103 -15 -57 -17 -77 -9 -68 14 14 54 218 42 218 -3 0 -8 -21 -12 -47z"/>
 <path d="M1451 7099 c-4 -81 74 -399 144 -593 83 -230 98 -257 527 -1001 234 -406 378 -654 433 -750 28 -49 145 -252 260 -450 114 -198 251 -434 303 -525 52 -91 228 -394 390 -675 161 -280 330 -573 375 -650 44 -77 99 -171 121 -210 23 -38 82 -141 131 -227 50 -87 92 -158 95 -158 3 0 22 28 42 63 20 34 132 229 250 432 371 640 557 963 653 1129 116 202 289 502 387 671 99 171 101 175 88 175 -5 0 -10 -6 -10 -14 0 -8 -3 -16 -7 -18 -5 -1 -19 -24 -32 -50 -14 -26 -29 -45 -33 -42 -4 3 -8 -2 -8 -11 0 -9 -12 -37 -27 -63 -15 -26 -35 -63 -45 -82 -10 -19 -27 -44 -38 -57 -11 -13 -20 -27 -20 -31 0 -12 -188 -341 -217 -379 -13 -18 -21 -33 -18 -33 3 0 1 -9 -5 -20 -6 -11 -16 -17 -25 -14 -8 4 -15 1 -15 -5 0 -6 5 -11 11 -11 7 0 4 -11 -7 -27 -10 -16 -28 -46 -40 -69 -12 -22 -34 -59 -48 -82 -14 -23 -26 -45 -26 -48 0 -4 -15 -30 -33 -58 -19 -28 -48 -78 -66 -110 -18 -32 -52 -92 -76 -132 -25 -41 -45 -76 -45 -79 0 -2 -16 -29 -35 -59 -19 -30 -35 -57 -35 -60 0 -3 -17 -34 -38 -68 -39 -63 -63 -106 -130 -226 -19 -35 -40 -66 -47 -69 -7 -2 -16 -20 -19 -39 -4 -19 -11 -34 -16 -34 -6 0 -10 -5 -10 -11 0 -7 -17 -39 -38 -73 -22 -34 -54 -88 -72 -121 -18 -33 -37 -65 -44 -70 -6 -6 -12 -16 -14 -24 -5 -22 -82 -151 -90 -151 -8 0 -71 101 -85 135 -4 11 -11 22 -15 25 -13 9 -52 87 -52 103 0 9 -6 20 -13 24 -15 9 -77 108 -77 123 0 6 -4 10 -9 10 -5 0 -12 13 -16 30 -4 16 -11 30 -16 30 -5 0 -11 11 -15 25 -3 14 -9 25 -13 25 -3 0 -15 17 -26 38 -11 20 -34 61 -52 90 -18 29 -33 54 -33 57 0 2 -19 37 -43 77 -23 40 -50 87 -60 103 -10 17 -36 62 -58 100 -44 77 -72 125 -100 170 -10 17 -23 41 -29 54 -6 13 -20 37 -31 52 -11 16 -17 29 -12 29 4 0 3 4 -3 8 -7 4 -23 27 -36 52 -14 25 -49 86 -77 135 -29 50 -63 108 -75 130 -13 22 -38 67 -57 100 -18 33 -39 66 -46 73 -7 7 -13 18 -13 24 0 5 -8 22 -19 36 -10 15 -29 47 -43 72 -14 25 -68 121 -122 213 -53 92 -97 173 -99 179 -1 6 -12 22 -24 36 -13 14 -23 29 -23 33 0 5 -17 37 -38 71 -21 35 -42 70 -46 78 -4 8 -12 24 -19 35 -7 11 -39 67 -72 125 -33 57 -65 114 -72 125 -7 11 -15 27 -19 35 -4 8 -21 38 -39 65 -17 28 -46 79 -64 115 -18 36 -39 72 -45 80 -23 29 -89 145 -89 158 0 6 -3 12 -7 12 -8 0 -110 176 -110 190 0 6 -4 10 -10 10 -5 0 -10 4 -10 9 0 6 -40 78 -90 162 -49 83 -90 153 -90 155 0 3 -11 22 -25 44 -14 22 -23 40 -20 40 3 0 -2 9 -12 19 -10 11 -31 46 -48 78 -16 32 -35 64 -43 72 -7 7 -10 22 -7 32 4 12 2 19 -7 19 -14 0 -28 23 -88 135 -20 39 -42 79 -48 90 -88 160 -188 459 -233 705 -31 165 -36 189 -38 159z"/>
 <path d="M2171 7075 c-1 -27 44 -206 70 -280 30 -86 102 -259 109 -265 3 -3 14 -23 25 -45 10 -22 29 -57 42 -78 14 -22 22 -46 19 -54 -4 -10 -2 -13 8 -10 8 3 17 -1 20 -9 3 -9 32 -52 63 -96 32 -44 57 -87 55 -95 -2 -8 1 -13 5 -10 12 7 21 0 66 -53 60 -70 144 -156 180 -183 42 -32 81 -65 118 -99 16 -16 32 -28 36 -28 3 0 20 -10 37 -23 40 -30 206 -131 229 -140 9 -3 17 -11 17 -17 0 -6 5 -8 10 -5 6 4 21 0 33 -7 12 -8 72 -34 132 -57 61 -24 119 -47 130 -52 22 -9 53 -17 185 -48 180 -41 229 -46 490 -45 162 1 266 5 285 12 29 11 29 12 -10 7 -113 -13 -400 -16 -498 -6 -729 75 -1355 511 -1672 1166 -77 159 -107 241 -150 410 -19 72 -34 121 -34 110z"/>
 <path d="M7973 7015 c0 -22 2 -30 4 -17 2 12 2 30 0 40 -3 9 -5 -1 -4 -23z"/>
 <path d="M492 6970 c-1 -14 3 -43 7 -65 6 -26 9 -31 9 -15 1 14 -3 43 -7 65 -6 26 -9 31 -9 15z"/>
 <path d="M7962 6950 c-1 -14 -5 -43 -7 -65 -5 -35 -4 -37 5 -15 6 13 9 42 7 65 -2 22 -4 29 -5 15z"/>
 <path d="M6206 6787 c-76 -223 -217 -475 -361 -647 -70 -83 -247 -258 -313 -309 -24 -18 -41 -36 -38 -38 8 -9 213 170 270 235 6 7 25 28 42 46 63 67 181 231 246 341 23 39 112 221 128 263 7 17 16 32 21 32 5 0 6 6 3 13 -3 8 4 33 14 58 17 40 37 119 30 119 -2 0 -20 -51 -42 -113z"/>
 <path d="M7936 6786 c-4 -21 -5 -40 -2 -43 7 -8 18 42 14 64 -3 11 -7 3 -12 -21z"/>
 <path d="M527 6740 c3 -30 9 -62 14 -70 5 -9 6 6 2 35 -9 71 -23 101 -16 35z"/>
 <path d="M7911 6665 c-1 -11 -4 -31 -6 -45 l-6 -25 11 25 c6 13 9 33 7 45 -4 19 -4 19 -6 0z"/>
 <path d="M552 6635 c0 -11 4 -31 8 -45 6 -20 8 -21 8 -5 0 11 -4 31 -8 45 -6 20 -8 21 -8 5z"/>
 <path d="M7873 6505 c-12 -43 -20 -81 -18 -83 3 -3 6 1 8 9 2 8 12 37 21 66 10 29 16 60 14 70 -2 10 -13 -18 -25 -62z"/>
 <path d="M577 6520 c3 -25 10 -49 15 -55 7 -7 8 2 3 25 -13 59 -25 79 -18 30z"/>
 <path d="M606 6415 c4 -22 11 -44 16 -50 10 -11 2 34 -13 70 -6 13 -6 5 -3 -20z"/>
 <path d="M7833 6365 c-7 -21 -10 -41 -8 -43 7 -7 26 50 23 67 -2 9 -9 -2 -15 -24z"/>
 <path d="M630 6337 c0 -2 7 -26 16 -53 9 -27 18 -55 20 -63 2 -8 7 -12 9 -9 5 5 -34 128 -41 128 -2 0 -4 -1 -4 -3z"/>
 <path d="M7806 6284 c-4 -14 -5 -29 -2 -31 3 -3 8 7 12 21 3 15 4 29 1 32 -2 3 -8 -7 -11 -22z"/>
 <path d="M7781 6209 c-14 -42 -7 -49 9 -9 7 17 10 33 8 36 -3 3 -11 -9 -17 -27z"/>
 <path d="M681 6193 c-1 -18 19 -67 25 -61 3 3 -2 21 -10 39 -8 19 -15 29 -15 22z"/>
 <path d="M7742 6104 c-11 -32 -20 -60 -18 -61 6 -6 47 98 44 109 -2 6 -14 -15 -26 -48z"/>
 <path d="M730 6056 c0 -21 149 -335 204 -429 54 -92 35 -45 -48 116 -45 89 -96 194 -111 232 -27 66 -45 99 -45 81z"/>
 <path d="M7701 6004 c-6 -15 -9 -29 -7 -32 3 -2 10 8 16 23 6 15 9 29 7 31 -2 2 -9 -8 -16 -22z"/>
 <path d="M7612 5805 c-12 -25 -20 -45 -17 -45 7 0 47 81 43 86 -3 2 -14 -17 -26 -41z"/>
 <path d="M5382 5725 c-97 -65 -265 -155 -364 -195 -32 -13 -56 -26 -53 -28 5 -5 105 34 153 60 18 10 37 16 43 13 5 -4 9 -2 9 3 0 5 15 17 33 25 56 27 152 86 228 140 21 15 49 27 61 27 19 0 20 2 8 10 -8 5 -17 9 -20 9 -3 0 -47 -29 -98 -64z"/>
 <path d="M7530 5651 c-11 -23 -19 -41 -16 -41 7 0 47 72 42 77 -2 3 -14 -13 -26 -36z"/>
 <path d="M7441 5495 c-34 -58 -71 -123 -82 -143 -12 -20 -30 -52 -41 -69 -11 -18 -16 -33 -11 -33 5 0 23 29 42 65 18 36 36 63 40 61 4 -3 7 3 8 13 2 26 59 112 68 103 5 -4 6 -2 2 4 -3 5 5 30 19 54 13 23 23 45 21 47 -3 2 -32 -44 -66 -102z"/>
 <path d="M1002 5512 c15 -35 91 -162 95 -159 5 5 -86 167 -94 167 -3 0 -3 -3 -1 -8z"/>
 <path d="M4860 5475 c-36 -13 -57 -24 -48 -24 21 -1 110 28 123 40 14 14 -3 10 -75 -16z"/>
 <path d="M4753 5443 c-7 -2 -52 -13 -100 -23 -49 -10 -75 -19 -60 -19 32 -1 165 27 187 40 13 7 13 8 0 8 -8 0 -21 -3 -27 -6z"/>
 <path d="M1127 5290 c3 -10 11 -25 19 -31 8 -6 14 -15 14 -20 0 -5 12 -27 26 -48 14 -22 26 -45 28 -53 1 -7 18 -38 39 -68 20 -30 37 -60 37 -67 0 -7 5 -13 10 -13 7 0 7 8 -1 23 -25 46 -171 297 -174 297 -2 0 -1 -9 2 -20z"/>
 <path d="M7269 5198 c-12 -23 -29 -53 -37 -65 -9 -15 -10 -23 -3 -23 6 0 11 4 11 10 0 5 14 32 30 61 17 28 29 54 26 56 -2 3 -15 -15 -27 -39z"/>
 <path d="M7190 5061 c-11 -23 -18 -41 -16 -41 8 0 48 71 43 76 -3 3 -15 -12 -27 -35z"/>
 <path d="M7157 5003 c-3 -5 -36 -63 -75 -130 -39 -68 -68 -123 -64 -123 4 0 16 17 27 38 11 20 34 61 52 90 18 29 33 56 33 61 0 5 6 14 14 20 8 6 16 21 19 31 5 20 2 26 -6 13z"/>
 <path d="M1313 4965 c0 -8 4 -15 9 -15 5 0 6 -4 3 -10 -3 -5 -2 -10 2 -10 5 0 23 -25 41 -55 18 -30 35 -55 38 -55 3 0 -3 15 -14 33 -11 17 -32 53 -47 80 -30 52 -32 54 -32 32z"/>
 <path d="M1417 4793 c4 -10 14 -30 22 -44 9 -15 40 -68 70 -118 29 -50 55 -91 58 -91 2 0 2 3 0 8 -35 64 -151 262 -153 262 -2 0 0 -8 3 -17z"/>
 <path d="M6950 4535 c29 -50 40 -63 34 -39 -3 10 -17 33 -31 49 l-25 30 22 -40z"/>
 <path d="M1570 4527 c0 -4 11 -25 25 -47 14 -22 25 -44 25 -49 0 -5 8 -15 17 -22 10 -9 4 10 -16 46 -33 60 -51 85 -51 72z"/>
 <path d="M7020 4415 c33 -58 66 -110 58 -90 -14 37 -56 113 -72 130 -11 11 -5 -6 14 -40z"/>
 <path d="M1667 4358 c10 -21 22 -38 26 -38 9 0 -4 26 -27 55 -13 16 -13 13 1 -17z"/>
 <path d="M1700 4305 c0 -10 40 -75 47 -75 2 0 -6 17 -18 38 -28 45 -29 47 -29 37z"/>
 <path d="M7093 4284 c27 -51 50 -74 28 -27 -12 23 -26 45 -32 48 -6 4 -4 -6 4 -21z"/>
 <path d="M1750 4215 c0 -2 20 -39 45 -81 25 -43 44 -83 41 -91 -3 -8 -1 -11 4 -8 6 3 13 -2 17 -12 4 -10 11 -22 15 -28 5 -5 16 -19 24 -30 23 -29 14 -13 -65 128 -65 114 -81 138 -81 122z"/>
 <path d="M7151 4188 c30 -57 62 -109 66 -105 4 5 -67 127 -74 127 -2 0 2 -10 8 -22z"/>
 <path d="M7250 4014 c33 -59 50 -84 50 -71 0 12 -61 117 -72 123 -5 4 5 -20 22 -52z"/>
 <path d="M7318 3898 c10 -18 74 -129 142 -246 67 -117 124 -211 127 -209 2 3 -16 39 -41 82 -26 42 -46 78 -46 80 0 2 -22 40 -50 84 -27 44 -50 83 -50 86 0 3 -11 23 -24 44 -14 21 -23 41 -20 43 2 3 -5 13 -16 23 -11 10 -20 24 -20 32 0 7 -5 13 -11 13 -6 0 -2 -14 9 -32z"/>
 <path d="M1970 3837 c0 -13 139 -247 146 -247 5 0 -21 46 -94 170 -48 81 -52 87 -52 77z"/>
 <path d="M6335 3579 c-34 -57 -219 -378 -600 -1039 -169 -294 -329 -571 -355 -615 -210 -356 -511 -887 -506 -892 12 -12 34 7 34 29 0 13 34 81 76 151 42 71 76 131 76 134 0 3 20 38 45 77 25 40 45 78 45 84 0 7 5 12 10 12 6 0 10 4 10 8 0 17 87 161 94 155 3 -3 6 2 6 13 0 11 11 35 24 54 13 19 26 45 30 58 4 12 11 22 16 22 4 0 11 11 14 25 4 14 11 25 16 25 6 0 10 4 10 10 0 5 23 49 51 97 28 48 65 113 82 143 16 30 38 67 48 81 10 15 23 37 29 50 5 13 16 33 22 43 46 71 78 126 78 135 0 5 10 22 23 38 12 15 31 46 42 68 11 22 43 80 72 128 29 48 53 90 53 93 0 3 15 28 33 57 18 29 44 73 57 100 13 26 27 47 32 47 4 0 8 7 8 15 0 15 6 25 38 60 6 7 12 20 12 29 0 8 6 21 14 29 8 8 25 36 39 63 34 69 132 236 151 257 9 9 16 19 15 22 -2 10 51 108 71 135 l19 25 7 -32 c3 -18 10 -31 14 -28 4 3 14 -8 21 -23 25 -48 102 -187 108 -192 6 -5 34 -54 59 -105 8 -16 21 -37 27 -45 7 -8 25 -37 40 -65 14 -27 34 -63 44 -80 10 -16 33 -57 51 -90 18 -33 37 -63 42 -66 5 -3 10 -10 9 -15 0 -5 10 -25 21 -44 38 -62 46 -78 40 -85 -3 -3 3 -12 14 -19 11 -8 30 -36 43 -62 14 -27 27 -51 30 -54 12 -10 31 -50 31 -64 0 -8 6 -16 13 -19 6 -3 21 -22 32 -43 11 -22 37 -67 57 -102 21 -34 38 -65 38 -67 0 -3 12 -24 27 -48 15 -23 26 -50 25 -59 0 -10 5 -18 12 -18 12 0 46 -56 46 -74 0 -4 8 -15 18 -26 9 -10 28 -40 42 -67 14 -26 27 -50 30 -53 3 -3 10 -14 16 -25 47 -86 81 -146 101 -177 12 -21 23 -42 23 -48 0 -5 4 -10 9 -10 5 0 15 -17 22 -37 6 -20 20 -46 30 -56 12 -14 16 -28 12 -48 -3 -18 -1 -29 6 -29 6 0 11 6 11 13 0 6 7 3 16 -8 8 -11 12 -25 10 -32 -3 -7 0 -13 7 -13 7 0 23 -21 37 -47 13 -27 44 -80 67 -119 24 -39 43 -75 43 -80 0 -5 11 -22 25 -38 14 -16 25 -33 25 -37 0 -4 23 -46 50 -94 28 -48 50 -89 50 -91 0 -10 -2715 4 -2775 14 -33 5 -86 15 -118 21 -33 7 -61 10 -64 8 -4 -5 52 -18 167 -40 59 -11 2810 -23 2810 -12 0 3 -68 124 -152 268 -83 144 -202 350 -263 457 -130 226 -234 405 -615 1065 -152 264 -321 557 -375 650 -134 233 -119 216 -150 164z"/>
 <path d="M2120 3574 c0 -9 41 -74 46 -74 2 0 -5 18 -16 40 -19 37 -30 49 -30 34z"/>
 <path d="M2204 3430 c20 -36 45 -81 54 -100 9 -19 20 -37 23 -40 5 -4 50 -84 99 -176 9 -18 27 -45 39 -60 l22 -29 -17 35 c-25 52 -235 413 -247 425 -5 6 7 -19 27 -55z"/>
 <path d="M7605 3403 c8 -18 18 -33 20 -33 10 0 4 16 -16 40 l-20 25 16 -32z"/>
 <path d="M7660 3305 c18 -33 39 -68 46 -78 11 -17 12 -16 10 6 0 14 -5 25 -9 24 -5 -1 -19 18 -32 42 -13 24 -30 49 -36 55 -7 6 3 -16 21 -49z"/>
 <path d="M7742 3162 c13 -21 31 -50 40 -63 16 -24 16 -24 11 -1 -3 12 -9 22 -13 22 -4 0 -15 18 -26 40 -10 22 -23 40 -27 40 -5 0 2 -17 15 -38z"/>
 <path d="M7802 3063 c17 -39 91 -163 95 -159 5 5 -36 86 -48 96 -3 3 -14 20 -23 38 -9 17 -19 32 -22 32 -3 0 -4 -3 -2 -7z"/>
 <path d="M2460 2987 c0 -3 14 -29 30 -57 17 -28 28 -55 26 -59 -3 -4 1 -8 9 -8 11 0 6 16 -17 56 -32 57 -48 80 -48 68z"/>
 <path d="M2540 2848 c0 -14 54 -109 68 -120 9 -7 1 14 -17 47 -32 59 -51 85 -51 73z"/>
 <path d="M7956 2793 c37 -64 54 -89 54 -79 0 11 -70 126 -76 126 -3 0 7 -21 22 -47z"/>
 <path d="M2641 2672 c11 -23 25 -45 31 -48 12 -7 -14 43 -36 71 -10 12 -8 3 5 -23z"/>
 <path d="M8028 2670 c51 -92 74 -130 79 -130 3 0 -7 20 -21 45 -15 25 -24 45 -22 45 3 0 -1 8 -9 18 -8 9 -22 26 -31 37 -9 12 -8 6 4 -15z"/>
 <path d="M2680 2607 c0 -9 100 -181 112 -192 14 -13 -6 24 -60 115 -48 81 -52 87 -52 77z"/>
 <path d="M8120 2510 c21 -41 92 -160 96 -160 7 0 -11 38 -49 100 -43 69 -68 101 -47 60z"/>
 <path d="M2807 2383 c4 -10 19 -38 34 -63 58 -96 80 -136 92 -162 6 -16 15 -28 19 -28 4 0 8 -6 8 -14 0 -7 8 -20 17 -27 18 -15 14 -7 -101 194 -64 111 -84 139 -69 100z"/>
 <path d="M8240 2299 c12 -23 24 -38 27 -35 5 5 -35 76 -43 76 -2 0 5 -18 16 -41z"/>
 <path d="M8278 2234 c6 -11 18 -28 26 -39 15 -18 15 -17 2 15 -8 19 -19 36 -26 38 -9 3 -9 -1 -2 -14z"/>
 <path d="M8323 2158 c13 -33 108 -181 105 -163 -2 11 -10 28 -18 38 -19 22 -56 84 -70 115 -10 23 -26 32 -17 10z"/>
 <path d="M2990 2065 c0 -3 14 -27 30 -53 17 -27 30 -52 30 -56 0 -4 10 -17 22 -29 l21 -22 -20 35 c-11 19 -33 56 -48 83 -24 43 -35 55 -35 42z"/>
 <path d="M8500 1851 c92 -159 110 -187 110 -178 0 8 -51 101 -92 166 -15 24 -25 48 -22 52 3 5 1 9 -5 9 -6 0 -18 16 -27 35 -9 19 -20 35 -25 35 -5 0 23 -54 61 -119z"/>
 <path d="M3098 1875 c2 -14 8 -22 13 -19 5 3 5 14 -1 25 -14 26 -18 24 -12 -6z"/>
 <path d="M3120 1844 c0 -5 14 -31 30 -57 17 -26 30 -51 30 -55 0 -4 10 -18 21 -32 12 -14 4 7 -17 45 -44 82 -64 113 -64 99z"/>
 <path d="M3256 1605 c5 -11 30 -55 56 -97 26 -43 48 -80 48 -82 0 -2 23 -42 50 -89 28 -47 50 -88 50 -92 0 -3 11 -21 25 -39 14 -18 25 -38 25 -43 0 -6 8 -17 17 -24 13 -10 11 -3 -6 26 -13 22 -31 54 -41 70 -9 17 -61 107 -114 200 -94 164 -126 213 -110 170z"/>
 <path d="M8680 1539 c12 -23 24 -39 26 -36 5 5 -35 77 -42 77 -3 0 5 -18 16 -41z"/>
 <path d="M8751 1418 c31 -59 92 -158 96 -155 2 3 -10 26 -26 53 -17 27 -40 66 -51 87 -22 39 -39 53 -19 15z"/>
 <path d="M8870 1209 c12 -23 24 -39 26 -36 5 5 -35 77 -42 77 -3 0 5 -18 16 -41z"/>
 <path d="M8926 1113 c37 -63 54 -89 54 -80 0 5 -11 28 -25 51 -14 24 -23 45 -20 47 2 3 -5 10 -16 17 -18 12 -17 7 7 -35z"/>
 <path d="M3540 1116 c0 -8 42 -76 46 -76 3 0 -5 18 -16 40 -18 35 -30 49 -30 36z"/>
 <path d="M3607 1000 c52 -95 129 -220 136 -220 4 0 -4 17 -18 38 -13 20 -42 69 -64 107 -42 74 -89 139 -54 75z"/>
 <path d="M8998 987 c11 -17 57 -96 102 -174 76 -132 98 -167 84 -128 -4 8 -34 61 -68 118 -34 57 -73 127 -87 155 -13 28 -30 54 -37 57 -9 3 -7 -6 6 -28z"/>
 <path d="M3764 741 c9 -16 12 -32 8 -36 -4 -5 -1 -5 5 -1 8 4 17 -2 25 -18 6 -14 15 -26 20 -26 4 0 -8 25 -28 55 -40 60 -53 72 -30 26z"/>
 <path d="M9220 603 c35 -62 50 -83 50 -67 0 5 -14 29 -30 54 -16 25 -30 51 -30 58 0 6 -5 12 -11 12 -6 0 4 -26 21 -57z"/>
 <path d="M3848 623 c75 -105 269 -299 331 -333 37 -19 23 -2 -25 31 -61 42 -197 177 -263 262 -52 66 -81 93 -43 40z"/>
 <path d="M9301 463 c19 -35 42 -73 52 -85 10 -13 2 9 -18 47 -20 39 -44 77 -52 85 -8 8 0 -13 18 -47z"/>
 <path d="M9390 309 c12 -23 24 -39 26 -36 5 5 -35 77 -42 77 -3 0 5 -18 16 -41z"/>
 <path d="M4210 277 c0 -6 98 -67 107 -67 8 0 -13 15 -69 49 -21 12 -38 20 -38 18z"/>
 <path d="M4344 195 c22 -17 40 -20 32 -6 -3 5 -16 11 -28 14 -22 6 -22 5 -4 -8z"/>
 <path d="M9465 181 c9 -19 35 -63 56 -98 21 -35 39 -66 39 -68 0 -3 -962 -6 -2137 -8 l-2138 -2 2141 -3 2142 -2 5 21 c3 12 3 18 0 15 -6 -6 -83 112 -83 127 0 4 -10 18 -21 30 l-21 22 17 -34z"/>
 <path d="M4400 171 c0 -10 50 -25 57 -18 2 3 -10 9 -26 15 -17 6 -31 7 -31 3z"/>
 <path d="M4474 143 c9 -9 78 -33 96 -32 8 0 -10 9 -40 19 -59 22 -67 23 -56 13z"/>
 <path d="M4720 70 c8 -5 30 -10 49 -10 45 0 37 6 -19 14 -31 4 -40 3 -30 -4z"/>
 <path d="M4885 40 c19 -8 143 -14 134 -6 -2 2 -38 6 -79 9 -46 4 -67 3 -55 -3z"/>
 <path d="M5048 23 c12 -2 32 -2 45 0 12 2 2 4 -23 4 -25 0 -35 -2 -22 -4z"/>
 <path d="M5168 13 c17 -2 47 -2 65 0 17 2 3 4 -33 4 -36 0 -50 -2 -32 -4z"/>
 </g>

</svg>