<!DOCTYPE svg PUBLIC "-//W3C//DTD SVG 20010904//EN" "http://www.w3.org/TR/2001/REC-SVG-20010904/DTD/svg10.dtd">
<svg version="1.0" xmlns="http://www.w3.org/2000/svg" width="800px" height="277px" viewBox="0 0 16000 4730" preserveAspectRatio="xMidYMid meet">
<g id="layer101" fill="#3e3935" stroke="none">
 <path d="M1316 4715 c-68 -12 -88 -18 -221 -58 -99 -29 -280 -112 -316 -143 -8 -8 -19 -14 -23 -14 -8 0 -111 -69 -143 -96 -12 -11 -32 -28 -45 -38 -71 -58 -167 -155 -233 -237 -34 -42 -105 -147 -105 -155 0 -4 -6 -15 -14 -23 -12 -14 -32 -51 -91 -171 -34 -67 -93 -269 -110 -376 -19 -116 -19 -401 -1 -514 37 -221 96 -374 233 -612 59 -101 96 -167 132 -231 9 -16 21 -36 26 -45 6 -9 29 -48 51 -87 40 -67 53 -90 112 -195 14 -25 45 -78 69 -118 24 -41 43 -78 43 -83 0 -5 3 -9 8 -9 4 0 14 -15 21 -32 8 -18 29 -55 46 -83 18 -27 44 -72 59 -100 15 -27 37 -66 48 -85 11 -19 32 -55 46 -80 14 -25 33 -57 43 -72 11 -14 19 -29 19 -33 0 -4 8 -19 19 -33 10 -15 31 -49 46 -77 51 -92 78 -139 106 -187 16 -27 29 -51 29 -54 0 -3 10 -20 23 -37 12 -18 31 -50 43 -72 26 -49 104 -181 151 -255 44 -68 170 -193 221 -219 64 -32 184 -68 265 -80 80 -11 1967 -17 1967 -5 0 7 -49 95 -63 114 -12 15 -17 24 -64 107 -13 24 -53 94 -89 155 -35 61 -64 112 -64 114 0 2 -16 28 -35 58 -19 30 -35 59 -35 65 0 5 -3 11 -7 13 -5 2 -18 21 -29 43 -12 22 -45 81 -74 130 -29 50 -66 115 -83 145 -17 30 -45 79 -64 108 -18 29 -33 54 -33 57 0 3 -16 29 -35 59 -19 30 -35 57 -35 60 0 3 -36 66 -80 142 -44 75 -80 140 -80 145 0 5 -4 9 -10 9 -5 0 -10 6 -10 13 0 7 -20 45 -45 84 -24 40 -56 94 -70 120 -15 26 -34 62 -44 78 -10 17 -28 47 -40 68 l-21 38 31 57 c17 31 34 62 39 67 4 6 24 42 45 80 21 39 43 76 49 84 30 37 140 251 180 351 10 25 22 54 26 65 8 18 29 103 60 245 22 95 25 376 6 488 -48 284 -136 500 -289 711 -87 121 -253 288 -342 345 -16 11 -34 23 -40 28 -78 63 -316 181 -420 208 -16 5 -57 16 -90 25 -129 36 -218 45 -410 44 -104 -1 -221 -7 -259 -14z m372 -406 c134 -14 253 -44 352 -86 75 -32 87 -39 153 -80 37 -24 70 -43 73 -43 3 0 11 -6 18 -12 7 -7 34 -31 60 -52 198 -164 343 -410 398 -676 19 -94 16 -365 -5 -455 -31 -132 -105 -312 -166 -405 -43 -66 -91 -151 -91 -161 0 -5 -7 -9 -16 -9 -8 0 -12 -4 -9 -10 3 -5 -26 -64 -64 -131 -39 -67 -71 -125 -71 -130 0 -4 -3 -9 -7 -11 -5 -1 -17 -20 -28 -40 -11 -20 -44 -79 -74 -130 -30 -51 -68 -118 -84 -148 -17 -30 -44 -77 -61 -105 -17 -27 -38 -63 -46 -80 -8 -16 -21 -36 -27 -43 -7 -7 -13 -20 -13 -28 0 -8 -4 -14 -10 -14 -5 0 -10 -6 -10 -13 0 -7 -8 -22 -17 -33 -10 -11 -19 -26 -21 -34 -2 -8 -9 -22 -16 -30 -6 -8 -21 -33 -33 -55 -11 -22 -31 -56 -42 -75 -12 -19 -24 -43 -27 -53 -4 -9 -9 -17 -13 -17 -4 0 -13 -16 -21 -35 -8 -19 -17 -35 -22 -35 -4 0 -8 -4 -8 -9 0 -8 -69 -133 -100 -181 -5 -8 -20 -33 -31 -55 -15 -27 -24 -35 -27 -25 -3 8 -11 21 -19 28 -7 7 -13 20 -13 28 0 8 -3 14 -8 14 -4 0 -13 13 -20 30 -12 25 -106 189 -133 230 -5 8 -12 23 -15 33 -4 9 -10 17 -15 17 -5 0 -9 6 -9 13 0 7 -21 46 -46 87 -25 41 -57 95 -71 120 -13 25 -28 52 -33 60 -41 66 -140 243 -140 251 0 5 -4 9 -10 9 -5 0 -10 6 -10 14 0 8 -6 21 -13 28 -6 7 -19 27 -27 43 -8 17 -29 53 -46 80 -17 28 -48 82 -69 120 -21 39 -41 72 -44 75 -3 3 -17 27 -31 55 -14 27 -34 63 -46 80 -11 17 -37 60 -56 96 -20 35 -65 115 -102 178 -36 62 -66 115 -66 117 0 2 -11 27 -23 56 -57 127 -76 200 -92 348 -20 182 6 390 66 535 30 72 71 156 89 185 74 113 100 147 163 212 40 40 90 87 112 103 22 17 42 33 45 36 9 12 103 67 165 97 150 74 229 97 390 117 132 17 123 17 233 4z m830 -2859 c12 -19 33 -57 48 -85 15 -27 41 -72 59 -100 17 -27 38 -65 46 -82 7 -18 17 -33 20 -33 4 0 9 -8 13 -17 3 -10 10 -25 15 -33 14 -20 100 -170 141 -245 18 -33 36 -62 39 -65 3 -3 13 -18 21 -35 8 -16 22 -42 32 -56 9 -14 18 -32 20 -40 2 -8 8 -18 14 -24 6 -5 26 -37 44 -70 17 -33 43 -79 57 -103 l26 -43 -604 3 c-390 2 -610 7 -621 13 -16 10 -14 16 18 70 20 33 47 80 61 105 13 25 32 59 42 75 10 17 27 46 38 65 37 64 113 195 123 210 5 8 21 38 36 65 15 28 41 73 59 100 17 28 38 65 46 83 7 17 17 32 21 32 5 0 8 4 8 9 0 19 143 252 150 244 5 -4 17 -24 28 -43z"/>
 <path d="M1415 4014 c-91 -19 -128 -30 -150 -41 -11 -6 -42 -21 -70 -34 -162 -74 -328 -241 -404 -404 -13 -27 -26 -57 -30 -65 -11 -22 -38 -117 -50 -178 -14 -68 -14 -239 0 -300 23 -104 33 -138 45 -162 7 -14 27 -56 44 -94 18 -39 39 -76 46 -84 8 -7 14 -18 14 -24 0 -19 204 -212 251 -237 136 -75 206 -100 338 -125 138 -26 261 -16 421 35 404 129 669 565 596 982 -9 48 -20 96 -26 107 -5 10 -10 26 -10 34 0 16 -51 126 -93 201 -24 43 -181 207 -237 247 -61 43 -170 97 -245 119 -129 40 -320 50 -440 23z"/>
 <path d="M9737 4403 c-4 -3 -7 -15 -7 -25 0 -17 6 -18 59 -12 33 3 71 4 85 0 36 -9 66 -45 66 -78 0 -25 -2 -27 -19 -18 -11 5 -49 10 -84 10 -56 0 -68 -3 -91 -26 -36 -37 -49 -94 -43 -187 9 -129 50 -167 184 -167 96 0 133 11 133 40 0 11 -6 20 -14 20 -12 0 -15 34 -18 201 l-3 201 -30 24 c-27 21 -40 24 -121 24 -50 0 -94 -3 -97 -7z m170 -185 l33 -12 0 -128 0 -128 -61 0 c-55 0 -64 3 -90 31 -27 29 -29 37 -29 111 0 65 4 85 21 109 23 33 66 39 126 17z"/>
 <path d="M10070 4390 c0 -14 7 -20 23 -20 27 -1 46 -15 75 -57 l23 -33 -36 -77 c-21 -43 -41 -86 -46 -95 -5 -10 -9 -25 -9 -33 0 -9 -6 -28 -14 -43 -7 -15 -16 -51 -20 -79 l-7 -53 31 0 c24 0 30 4 30 21 0 32 38 156 66 216 13 28 24 57 24 62 0 6 5 11 10 11 6 0 10 -1 10 -3 0 -1 9 -27 21 -57 26 -69 45 -141 53 -202 6 -42 10 -48 31 -48 36 0 39 15 20 93 -41 166 -121 349 -173 394 -36 31 -112 33 -112 3z"/>
 <path d="M13377 4403 c-4 -3 -7 -15 -7 -25 0 -18 5 -19 64 -13 103 11 156 -18 156 -85 0 -21 -15 -27 -25 -10 -3 6 -37 10 -74 10 -64 0 -71 -2 -99 -31 -40 -41 -57 -129 -41 -215 18 -100 66 -134 186 -134 103 0 123 6 123 36 0 13 -4 24 -9 24 -5 0 -11 89 -13 199 l-3 199 -30 26 c-28 24 -37 26 -126 26 -53 0 -99 -3 -102 -7z m183 -188 l30 -16 0 -124 0 -125 -55 0 c-103 0 -128 31 -127 157 0 64 4 79 23 99 27 29 84 32 129 9z"/>
 <path d="M14220 4390 c0 -15 7 -20 28 -20 33 -1 53 -15 80 -59 19 -32 20 -35 3 -65 -51 -93 -111 -268 -111 -322 0 -22 4 -25 27 -22 23 2 29 9 36 43 13 65 29 118 47 160 10 22 20 50 24 62 6 18 36 53 36 41 0 -2 13 -42 29 -88 16 -47 34 -115 41 -152 11 -63 14 -68 37 -68 25 0 25 1 18 58 -6 53 -12 78 -37 157 -21 63 -63 161 -80 187 -10 14 -18 31 -18 36 0 5 -16 24 -35 41 -29 25 -45 31 -80 31 -38 0 -45 -3 -45 -20z"/>
 <path d="M5425 4282 c-72 -34 -105 -155 -74 -275 20 -80 58 -107 149 -107 58 0 92 10 115 34 50 54 62 207 22 286 -36 72 -131 100 -212 62z m121 -46 c35 -10 49 -52 49 -141 0 -97 -13 -128 -62 -143 -75 -23 -120 20 -129 121 -8 85 10 137 56 159 19 10 42 16 50 14 8 -3 24 -7 36 -10z"/>
 <path d="M6030 4286 c-48 -17 -76 -62 -84 -135 -7 -65 1 -154 17 -186 24 -47 64 -65 141 -65 59 0 67 3 99 33 47 45 65 130 48 226 -14 76 -38 112 -90 129 -42 15 -86 14 -131 -2z m105 -50 c46 -20 65 -60 65 -143 0 -83 -22 -125 -74 -143 -64 -21 -117 26 -132 117 -11 73 30 167 79 176 12 2 23 5 25 6 1 0 18 -5 37 -13z"/>
 <path d="M6725 4288 c-48 -18 -73 -55 -85 -129 -17 -97 1 -183 47 -226 32 -30 40 -33 99 -33 126 0 158 40 159 195 0 113 -17 159 -70 184 -39 19 -113 23 -150 9z m124 -62 c24 -18 51 -89 51 -131 0 -138 -134 -205 -190 -95 -25 49 -27 148 -4 191 26 51 100 69 143 35z"/>
 <path d="M7611 4287 c-44 -17 -60 -49 -61 -124 0 -56 2 -63 31 -87 27 -23 39 -26 110 -26 l79 0 0 -32 c0 -43 -8 -53 -51 -67 -26 -8 -49 -9 -80 -2 -63 15 -69 14 -69 -13 0 -29 21 -36 113 -36 78 0 123 18 137 56 6 14 10 95 10 180 0 148 -1 154 -20 154 -11 0 -23 -7 -26 -15 -5 -13 -9 -13 -34 0 -41 21 -100 26 -139 12z m132 -66 c24 -14 27 -21 27 -68 l0 -53 -61 0 c-72 0 -92 9 -109 50 -10 25 -10 34 4 55 30 46 78 52 139 16z"/>
 <path d="M8005 4287 c-48 -19 -61 -30 -79 -64 -22 -44 -23 -211 -1 -254 24 -46 70 -69 138 -69 67 0 97 12 97 40 0 18 -5 20 -54 14 -81 -10 -104 -1 -126 49 -34 74 -20 194 27 224 16 11 41 14 85 12 58 -4 63 -2 66 18 3 18 -4 23 -48 32 -61 13 -66 13 -105 -2z"/>
 <path d="M9215 4288 c-51 -14 -79 -47 -93 -110 -19 -80 -12 -161 19 -224 17 -34 62 -54 124 -54 93 0 129 30 139 115 3 31 3 67 0 80 -6 25 -7 25 -120 25 -108 0 -114 1 -114 20 0 30 27 78 51 91 13 6 53 10 98 8 71 -4 76 -3 79 17 2 16 -3 23 -20 27 -52 13 -125 15 -163 5z m135 -255 c-1 -44 -16 -68 -54 -83 -53 -20 -126 34 -126 95 0 25 0 25 90 25 l90 0 0 -37z"/>
 <path d="M11175 4287 c-43 -17 -58 -29 -73 -55 -17 -31 -26 -136 -18 -206 6 -46 14 -63 42 -91 33 -34 38 -35 109 -35 71 0 76 1 109 35 28 28 36 45 42 91 8 69 0 169 -18 206 -7 14 -25 34 -40 43 -36 21 -116 28 -153 12z m94 -48 c96 -34 95 -252 -2 -287 -75 -27 -137 36 -137 142 0 77 25 124 80 148 21 9 23 9 59 -3z"/>
 <path d="M12295 4288 c-34 -13 -44 -21 -70 -61 -25 -39 -26 -207 -2 -254 28 -52 66 -73 137 -73 119 0 155 44 155 195 0 101 -8 130 -49 171 -31 31 -116 41 -171 22z m100 -52 c46 -20 65 -61 65 -141 0 -81 -19 -121 -66 -141 -30 -12 -39 -12 -69 0 -43 18 -65 67 -65 148 0 72 20 115 63 133 40 18 32 17 72 1z"/>
 <path d="M13933 4287 c-47 -9 -53 -13 -53 -34 0 -24 0 -24 83 -18 99 8 131 -2 153 -49 33 -67 -6 -112 -129 -149 -84 -26 -107 -50 -114 -118 -11 -112 39 -159 173 -159 86 0 114 11 114 44 0 22 -2 23 -37 15 -54 -12 -121 -11 -146 3 -37 20 -47 35 -47 77 0 37 4 43 40 66 22 14 44 25 50 25 28 0 95 28 121 50 22 19 31 37 35 72 14 103 -19 158 -104 177 -60 12 -66 12 -139 -2z"/>
 <path d="M14655 4295 c-5 -2 -27 -6 -47 -10 -31 -5 -38 -10 -38 -29 0 -23 1 -24 83 -19 78 5 85 4 105 -18 12 -12 22 -29 22 -36 0 -19 -49 -63 -70 -63 -34 0 -111 -33 -125 -53 -8 -12 -15 -41 -15 -65 0 -36 5 -49 31 -73 28 -27 37 -29 104 -29 90 0 105 5 105 36 0 21 -3 24 -27 19 -16 -4 -38 -8 -51 -11 -12 -2 -41 0 -62 6 -36 10 -40 14 -40 44 0 42 9 49 89 74 89 27 111 50 111 116 0 42 -5 57 -22 73 -33 30 -116 51 -153 38z"/>
 <path d="M15216 4288 c-77 -21 -99 -62 -100 -183 0 -111 13 -153 59 -182 55 -36 160 -30 200 11 15 15 35 87 35 124 0 61 -2 62 -126 62 -108 0 -114 1 -114 20 0 30 27 78 51 91 12 6 52 9 93 7 66 -3 71 -2 74 19 2 14 -3 23 -15 26 -43 13 -121 15 -157 5z m134 -255 c-1 -44 -16 -68 -54 -83 -54 -20 -126 36 -126 100 0 19 6 20 90 20 l90 0 0 -37z"/>
 <path d="M4587 4283 c-4 -3 -7 -120 -7 -258 l0 -252 38 -7 c110 -18 217 -1 253 41 38 43 50 136 27 202 -26 73 -60 91 -172 91 l-86 0 0 95 c0 93 -1 95 -23 95 -13 0 -27 -3 -30 -7z m232 -262 c28 -26 31 -35 31 -90 0 -51 -4 -64 -25 -85 -30 -30 -78 -41 -140 -32 l-45 7 0 109 c0 123 -5 117 91 119 50 1 61 -3 88 -28z"/>
 <path d="M4980 4020 l0 -270 25 0 c25 0 25 1 25 90 l0 91 30 -16 c41 -21 139 -20 166 3 39 31 44 55 44 217 l0 156 -27 -3 -28 -3 -5 -154 -5 -155 -31 -18 c-26 -15 -36 -16 -65 -6 -79 27 -78 26 -79 191 l0 147 -25 0 -25 0 0 -270z"/>
 <path d="M5772 4274 c-21 -15 -22 -21 -22 -170 l0 -154 -25 0 c-20 0 -25 -5 -25 -25 0 -20 5 -25 25 -25 23 0 25 -4 25 -45 0 -41 2 -45 25 -45 23 0 25 4 25 44 l0 45 48 3 c40 3 47 6 50 26 3 20 0 22 -47 22 l-51 0 0 134 c0 147 2 152 60 158 27 2 36 8 38 26 3 20 0 22 -50 22 -32 0 -62 -6 -76 -16z"/>
 <path d="M6413 4278 c-9 -13 -28 -54 -46 -98 -5 -14 -15 -36 -21 -50 -20 -40 -56 -177 -56 -209 0 -18 5 -22 28 -19 23 3 28 8 33 43 3 22 11 58 19 80 17 53 50 143 63 177 l11 27 14 -32 c27 -64 73 -213 79 -254 5 -37 9 -43 29 -43 33 0 36 12 20 82 -20 85 -41 145 -82 233 -28 63 -38 75 -58 75 -13 0 -28 -6 -33 -12z"/>
 <path d="M7048 4279 c-16 -9 -18 -33 -18 -269 l0 -260 25 0 25 0 2 243 3 242 28 3 c21 3 27 9 27 28 0 21 -4 24 -37 24 -21 0 -46 -5 -55 -11z"/>
 <path d="M7224 4276 c-17 -13 -19 -30 -22 -170 -3 -146 -5 -156 -23 -156 -14 0 -19 -7 -19 -25 0 -18 5 -25 20 -25 17 0 20 -7 20 -45 0 -43 1 -45 30 -45 29 0 30 2 30 45 l0 45 45 0 c41 0 45 2 45 25 0 23 -4 25 -45 25 l-46 0 3 143 3 142 43 3 c37 3 42 6 42 28 0 22 -3 24 -53 24 -30 0 -62 -6 -73 -14z"/>
 <path d="M7414 4277 c-2 -7 -3 -94 -2 -192 l3 -180 25 0 25 0 3 193 2 192 -25 0 c-14 0 -28 -6 -31 -13z"/>
 <path d="M8380 4025 l0 -265 145 0 145 0 0 30 0 30 -120 0 -120 0 0 90 0 90 110 0 110 0 0 25 0 25 -110 0 -110 0 0 90 0 89 123 3 122 3 3 28 3 27 -150 0 -151 0 0 -265z"/>
 <path d="M8744 4277 c-2 -7 -3 -94 -2 -192 3 -178 3 -180 26 -183 13 -2 24 3 28 12 5 14 9 14 34 1 34 -18 119 -20 153 -4 49 22 57 54 57 223 l0 156 -25 0 -25 0 0 -129 c0 -70 -5 -142 -11 -160 -16 -45 -55 -63 -105 -48 -68 21 -73 33 -74 195 l0 142 -25 0 c-14 0 -28 -6 -31 -13z"/>
 <path d="M9487 4283 c-4 -3 -7 -91 -7 -195 l0 -188 25 0 c18 0 25 5 25 20 0 11 1 20 3 20 1 0 20 -9 42 -20 22 -11 52 -20 67 -20 24 0 28 4 28 30 0 28 -3 30 -37 30 -27 0 -47 8 -70 29 l-33 29 0 136 c0 125 -1 136 -18 136 -10 0 -22 -3 -25 -7z"/>
 <path d="M10586 4283 c-7 -7 1 -380 10 -470 5 -50 7 -53 34 -53 21 0 30 6 35 23 8 24 19 50 58 137 13 30 32 76 42 103 10 26 21 47 25 47 5 0 28 -46 60 -125 4 -11 15 -36 23 -55 9 -19 25 -56 36 -83 16 -37 25 -47 44 -47 22 0 25 6 31 53 3 28 9 148 13 265 l6 212 -25 0 c-26 0 -26 0 -32 -107 -12 -193 -22 -280 -30 -258 -4 11 -14 34 -21 50 -7 17 -17 41 -23 55 -50 121 -55 130 -82 130 -22 0 -30 -8 -45 -42 -10 -24 -28 -65 -40 -93 -13 -27 -29 -67 -36 -89 -13 -35 -14 -36 -20 -15 -4 13 -7 102 -8 197 l-1 172 -23 0 c-13 0 -27 -3 -31 -7z"/>
 <path d="M11470 4095 c0 -187 1 -195 20 -195 10 0 23 7 27 15 8 13 12 13 37 0 40 -21 135 -19 162 3 39 31 44 55 44 217 l0 156 -27 -3 -28 -3 -5 -154 -5 -155 -31 -18 c-26 -15 -36 -16 -65 -6 -79 27 -78 26 -79 191 l0 147 -25 0 -25 0 0 -195z"/>
 <path d="M11847 4283 c-4 -3 -7 -91 -7 -195 l0 -188 30 0 30 0 0 195 0 195 -23 0 c-13 0 -27 -3 -30 -7z"/>
 <path d="M12032 4274 c-21 -15 -22 -21 -22 -170 0 -147 -1 -154 -20 -154 -15 0 -20 -7 -20 -25 0 -18 5 -25 20 -25 17 0 20 -7 20 -45 0 -41 2 -45 25 -45 23 0 25 4 25 44 l0 45 48 3 c40 3 47 6 50 26 3 20 0 22 -47 22 l-51 0 0 133 c0 90 4 137 12 145 7 7 29 12 50 12 34 0 38 3 38 25 0 24 -3 25 -53 25 -31 0 -61 -6 -75 -16z"/>
 <path d="M12600 4095 c0 -188 1 -195 20 -195 13 0 20 7 20 20 0 11 1 20 3 20 2 0 22 -9 45 -20 22 -11 53 -20 67 -20 21 0 25 5 25 30 0 28 -2 30 -38 30 -26 0 -45 8 -65 25 -27 26 -27 26 -27 165 l0 140 -25 0 -25 0 0 -195z"/>
 <path d="M12847 4283 c-4 -3 -7 -91 -7 -195 l0 -188 25 0 25 0 0 195 c0 182 -1 195 -18 195 -10 0 -22 -3 -25 -7z"/>
 <path d="M12987 4283 c-4 -3 -7 -91 -7 -195 0 -180 1 -188 20 -188 10 0 23 7 28 16 8 15 12 15 40 0 18 -9 55 -16 87 -16 49 0 60 4 86 29 l29 29 0 167 0 166 -22 -3 c-22 -3 -23 -7 -28 -148 -4 -80 -9 -153 -14 -162 -12 -26 -60 -39 -98 -26 -67 22 -68 26 -68 190 l0 148 -23 0 c-13 0 -27 -3 -30 -7z"/>
 <path d="M14942 4274 c-21 -15 -22 -21 -22 -170 l0 -154 -25 0 c-20 0 -25 -5 -25 -25 0 -20 5 -25 25 -25 23 0 25 -4 25 -45 0 -41 2 -45 25 -45 23 0 25 4 25 44 l0 45 48 3 c40 3 47 6 50 26 3 20 0 22 -47 22 l-51 0 0 133 c0 90 4 137 12 145 7 7 29 12 50 12 34 0 38 3 38 25 0 24 -3 25 -53 25 -31 0 -61 -6 -75 -16z"/>
 <path d="M15487 4283 c-4 -3 -7 -91 -7 -195 l0 -188 24 0 c14 0 26 7 28 15 3 13 6 13 32 0 43 -23 139 -20 161 5 17 19 18 19 56 0 56 -29 135 -27 174 4 l30 24 3 172 4 171 -29 -3 -28 -3 -5 -154 -5 -155 -31 -18 c-36 -21 -71 -13 -111 24 -22 20 -23 29 -23 165 l0 143 -25 0 -25 0 0 -147 c-1 -158 -5 -174 -51 -191 -27 -10 -74 2 -101 26 -16 13 -18 35 -18 164 l0 148 -23 0 c-13 0 -27 -3 -30 -7z"/>
 <path d="M7414 3836 c-3 -8 -4 -25 -2 -38 2 -18 9 -23 33 -23 28 0 30 3 30 35 0 31 -3 35 -28 38 -17 2 -29 -2 -33 -12z"/>
 <path d="M11842 3838 c-27 -27 -6 -68 35 -68 27 0 38 20 29 55 -7 27 -42 35 -64 13z"/>
 <path d="M12843 3844 c-7 -3 -13 -19 -13 -35 0 -22 5 -30 26 -35 32 -8 46 6 42 42 -3 29 -26 40 -55 28z"/>
 <path d="M14835 3445 c-5 -1 -62 -8 -125 -14 -226 -23 -341 -51 -422 -102 -77 -50 -83 -70 -86 -318 -3 -202 -2 -213 15 -207 31 13 512 28 675 23 194 -7 280 -30 345 -93 39 -38 56 -169 31 -243 -17 -52 -93 -121 -173 -160 -39 -18 -77 -37 -85 -42 -8 -5 -22 -12 -30 -15 -8 -3 -24 -9 -35 -14 -33 -12 -67 -27 -118 -49 -26 -12 -67 -29 -90 -38 -63 -25 -234 -117 -247 -133 -3 -3 -23 -19 -45 -36 -50 -36 -130 -121 -147 -154 -7 -14 -21 -37 -31 -53 -56 -83 -91 -260 -91 -462 0 -255 54 -455 158 -585 39 -48 138 -139 169 -155 54 -28 111 -57 129 -66 23 -12 161 -50 223 -61 82 -16 509 -22 605 -8 173 23 329 72 383 120 59 52 67 91 67 310 l0 181 -187 -8 c-104 -4 -285 -8 -403 -8 -197 1 -221 3 -285 24 -91 30 -127 68 -145 150 -14 68 -2 146 32 194 30 42 120 97 253 156 213 94 228 102 330 153 378 190 495 383 495 813 0 147 -11 254 -35 335 -32 113 -41 138 -60 175 -72 143 -180 238 -355 313 -105 45 -364 82 -561 81 -79 0 -148 -2 -154 -4z"/>
 <path d="M4596 3374 c-15 -14 -16 -153 -14 -1422 l3 -1407 25 -3 c14 -1 57 -6 95 -12 367 -50 726 -65 920 -37 114 17 235 45 250 58 5 5 14 9 21 9 22 0 169 89 209 127 108 102 175 236 217 438 8 39 12 143 12 295 -1 234 -2 241 -42 402 -13 48 -89 207 -116 238 -53 62 -148 149 -175 161 -17 8 -31 17 -31 20 0 3 -19 12 -42 19 -24 8 -49 18 -56 23 -34 26 -249 56 -399 57 -175 0 -452 -27 -565 -56 -32 -8 -62 -14 -68 -14 -7 0 -10 188 -10 560 l0 560 -109 0 c-86 0 -113 -3 -125 -16z m1034 -1278 c47 -8 94 -18 105 -21 104 -36 205 -112 251 -190 64 -111 94 -257 94 -472 0 -142 -4 -182 -31 -308 -39 -185 -174 -329 -344 -367 -141 -31 -551 -34 -775 -5 l-95 13 0 649 0 650 40 6 c22 4 74 12 115 19 241 39 496 49 640 26z"/>
 <path d="M7524 3383 c-17 -12 -104 -189 -141 -288 -8 -22 -24 -59 -34 -83 -11 -24 -27 -62 -35 -85 -9 -23 -20 -51 -24 -62 -55 -136 -225 -632 -279 -815 -12 -41 -27 -87 -33 -102 -5 -14 -14 -41 -18 -60 -5 -18 -18 -69 -30 -113 -12 -44 -25 -94 -29 -111 -5 -18 -11 -36 -15 -42 -3 -6 -10 -30 -15 -54 -13 -59 -39 -166 -51 -204 -6 -17 -10 -41 -10 -53 0 -12 -5 -31 -10 -42 -6 -10 -14 -38 -19 -61 -5 -24 -16 -79 -25 -123 -9 -44 -21 -105 -27 -135 -6 -30 -17 -84 -24 -120 -7 -36 -18 -99 -25 -140 -6 -41 -15 -97 -20 -123 -6 -27 -10 -53 -10 -58 0 -15 246 -11 259 4 10 13 21 57 42 177 6 30 16 84 24 120 7 36 19 94 25 130 25 141 65 322 115 520 9 36 21 84 26 108 5 24 11 47 14 51 2 5 18 59 34 122 16 63 38 141 48 174 11 33 30 94 42 135 13 41 27 91 33 110 6 19 16 51 23 70 7 19 29 85 49 145 62 189 153 442 177 487 5 10 9 22 9 28 0 5 12 35 26 67 35 81 41 95 49 118 5 15 16 -4 47 -80 22 -55 45 -111 50 -125 6 -14 14 -34 18 -45 4 -11 14 -38 23 -60 8 -22 25 -67 37 -100 12 -33 32 -87 45 -120 13 -33 35 -96 49 -140 13 -44 33 -105 44 -135 11 -30 30 -89 42 -130 12 -41 31 -102 42 -135 11 -33 29 -91 38 -130 10 -38 26 -95 34 -125 9 -30 32 -118 51 -195 20 -77 42 -162 50 -190 7 -27 21 -86 31 -130 9 -44 20 -98 25 -120 5 -22 14 -67 20 -99 5 -33 12 -63 15 -68 3 -5 10 -34 15 -66 5 -31 13 -79 19 -107 21 -114 32 -173 38 -220 l7 -50 109 -3 c136 -3 140 -1 133 88 -7 80 -31 220 -62 365 -10 44 -21 98 -25 120 -7 36 -18 85 -40 185 -4 19 -17 73 -29 120 -12 47 -26 102 -32 123 -22 87 -32 124 -44 162 -7 22 -18 63 -25 90 -18 73 -50 185 -65 225 -7 19 -18 55 -25 80 -18 63 -142 436 -183 550 -19 52 -41 111 -47 130 -7 19 -17 39 -21 45 -5 5 -9 19 -9 31 0 13 -4 25 -9 28 -5 3 -12 18 -16 33 -3 16 -16 48 -27 73 -21 45 -35 78 -48 115 -8 21 -36 87 -99 230 l-40 90 -123 3 c-68 1 -128 -1 -134 -5z"/>
 <path d="M9085 3382 c-33 -11 -51 -25 -71 -57 -18 -28 -19 -71 -22 -1427 l-2 -1398 814 0 c936 0 876 -6 910 94 13 37 16 91 16 266 l0 220 -510 0 -510 0 0 270 0 270 395 0 c422 0 425 0 470 50 19 21 20 39 23 281 l3 259 -445 0 -446 0 0 294 0 295 473 3 c449 3 474 4 512 23 66 33 70 48 73 323 l3 242 -833 -1 c-458 -1 -842 -4 -853 -7z"/>
 <path d="M11197 3375 c-16 -8 -37 -25 -47 -37 -18 -22 -19 -46 -20 -428 0 -231 6 -530 15 -695 8 -159 19 -380 25 -490 21 -419 47 -862 62 -1068 l11 -157 398 0 c296 0 405 3 426 12 63 29 86 70 113 203 6 33 16 70 21 83 5 13 9 33 9 45 0 12 6 39 14 62 8 22 19 65 25 95 22 103 35 157 65 275 8 33 20 81 25 108 47 208 62 272 70 297 8 24 22 86 36 158 8 39 23 42 30 5 3 -16 12 -53 20 -83 8 -30 23 -93 34 -140 26 -111 104 -432 131 -540 12 -47 25 -103 30 -125 5 -22 13 -58 18 -80 6 -22 15 -63 20 -91 6 -28 15 -61 20 -75 6 -13 16 -51 22 -84 7 -33 17 -75 22 -92 l10 -33 379 0 c420 0 419 0 458 63 16 27 23 62 31 158 14 171 28 382 40 589 5 96 16 288 25 425 20 340 34 781 40 1258 l4 398 -313 -3 -313 -3 -34 -34 -34 -34 -6 -756 c-11 -1312 -10 -1259 -21 -1221 -5 19 -14 53 -19 75 -6 22 -16 63 -24 90 -8 28 -23 91 -35 140 -22 96 -30 128 -54 215 -8 30 -24 96 -36 145 -12 50 -28 115 -36 145 -24 87 -32 119 -54 215 -12 50 -27 113 -35 140 -22 80 -34 129 -37 150 -3 19 -12 20 -248 23 -287 3 -289 2 -333 -92 -15 -31 -27 -63 -27 -71 0 -8 -9 -49 -19 -92 -11 -43 -26 -105 -34 -138 -8 -33 -24 -94 -35 -135 -10 -41 -25 -102 -32 -135 -7 -33 -22 -94 -33 -135 -10 -41 -21 -82 -23 -90 -9 -44 -67 -283 -79 -330 -8 -30 -17 -68 -21 -85 l-7 -30 -8 40 c-5 22 -12 482 -15 1023 l-7 982 -291 0 c-237 0 -296 -3 -319 -15z"/>
 </g>
<g id="layer102" fill="#00a19c" stroke="none">
 <path d="M1316 4715 c-68 -12 -88 -18 -221 -58 -99 -29 -280 -112 -316 -143 -8 -8 -19 -14 -23 -14 -8 0 -111 -69 -143 -96 -12 -11 -32 -28 -45 -38 -71 -58 -167 -155 -233 -237 -34 -42 -105 -147 -105 -155 0 -4 -6 -15 -14 -23 -12 -14 -32 -51 -91 -171 -34 -67 -93 -269 -110 -376 -19 -116 -19 -401 -1 -514 37 -221 96 -374 233 -612 59 -101 96 -167 132 -231 9 -16 21 -36 26 -45 6 -9 29 -48 51 -87 40 -67 53 -90 112 -195 14 -25 45 -78 69 -118 24 -41 43 -78 43 -83 0 -5 3 -9 8 -9 4 0 14 -15 21 -32 8 -18 29 -55 46 -83 18 -27 44 -72 59 -100 15 -27 38 -68 52 -90 13 -22 27 -47 31 -55 4 -8 30 -53 58 -100 29 -47 65 -107 80 -135 56 -100 78 -140 106 -187 16 -27 29 -51 29 -54 0 -3 10 -20 23 -37 12 -18 31 -50 43 -72 26 -49 104 -181 151 -255 44 -68 170 -193 221 -219 64 -32 184 -68 265 -80 80 -11 1967 -17 1967 -5 0 7 -49 95 -63 114 -12 15 -17 24 -64 107 -13 24 -53 94 -89 155 -35 61 -64 112 -64 114 0 2 -16 28 -35 58 -19 30 -35 59 -35 65 0 5 -3 11 -7 13 -5 2 -18 21 -29 43 -12 22 -45 81 -74 130 -29 50 -66 115 -83 145 -17 30 -45 79 -64 108 -18 29 -33 54 -33 57 0 3 -16 29 -35 59 -19 30 -35 57 -35 60 0 3 -36 66 -80 142 -44 75 -80 140 -80 145 0 5 -4 9 -10 9 -5 0 -10 6 -10 13 0 7 -20 45 -45 84 -24 40 -56 94 -70 120 -15 26 -34 62 -44 78 -10 17 -28 47 -40 68 l-21 38 31 57 c17 31 34 62 39 67 4 6 24 42 45 80 21 39 43 76 49 84 30 37 140 251 180 351 10 25 22 54 26 65 8 18 29 103 60 245 22 95 25 376 6 488 -48 284 -136 500 -289 711 -87 121 -253 288 -342 345 -16 11 -34 23 -40 28 -78 63 -316 181 -420 208 -16 5 -57 16 -90 25 -129 36 -218 45 -410 44 -104 -1 -221 -7 -259 -14z m372 -406 c307 -33 551 -151 752 -363 148 -157 256 -366 302 -586 19 -94 16 -365 -5 -455 -31 -132 -105 -312 -166 -405 -43 -66 -91 -151 -91 -161 0 -5 -7 -9 -16 -9 -8 0 -12 -4 -9 -10 3 -5 -26 -64 -64 -131 -39 -67 -71 -125 -71 -130 0 -4 -3 -9 -7 -11 -5 -1 -17 -20 -28 -40 -11 -20 -44 -79 -74 -130 -30 -51 -68 -118 -84 -148 -17 -30 -44 -77 -61 -105 -17 -27 -38 -63 -46 -80 -8 -16 -21 -36 -27 -43 -7 -7 -13 -20 -13 -28 0 -8 -4 -14 -10 -14 -5 0 -10 -6 -10 -13 0 -7 -8 -22 -17 -33 -10 -11 -19 -26 -21 -34 -2 -8 -9 -22 -16 -30 -6 -8 -21 -33 -33 -55 -11 -22 -31 -56 -42 -75 -12 -19 -24 -43 -27 -53 -4 -9 -9 -17 -13 -17 -4 0 -13 -16 -21 -35 -8 -19 -17 -35 -22 -35 -4 0 -8 -4 -8 -9 0 -8 -69 -133 -100 -181 -5 -8 -20 -33 -31 -55 -15 -27 -24 -35 -27 -25 -3 8 -11 21 -19 28 -7 7 -13 20 -13 28 0 8 -3 14 -8 14 -4 0 -13 13 -20 30 -12 25 -106 189 -133 230 -5 8 -12 23 -15 33 -4 9 -10 17 -15 17 -5 0 -9 6 -9 13 0 7 -21 46 -46 87 -25 41 -57 95 -71 120 -13 25 -28 52 -33 60 -41 66 -140 243 -140 251 0 5 -4 9 -10 9 -5 0 -10 6 -10 14 0 8 -6 21 -13 28 -6 7 -19 27 -27 43 -8 17 -29 53 -46 80 -17 28 -48 82 -69 120 -21 39 -41 72 -44 75 -3 3 -17 27 -31 55 -14 27 -34 63 -46 80 -11 17 -37 60 -56 96 -20 35 -65 115 -102 178 -36 62 -66 115 -66 117 0 2 -11 27 -23 56 -57 127 -76 200 -92 348 -20 182 6 390 66 535 30 72 71 156 89 185 74 113 100 147 163 212 40 40 90 87 112 103 22 17 42 33 45 36 9 11 114 74 160 96 146 72 237 99 395 118 132 17 123 17 233 4z m830 -2859 c12 -19 33 -57 48 -85 15 -27 41 -72 59 -100 17 -27 38 -65 46 -82 7 -18 17 -33 20 -33 4 0 9 -8 13 -17 3 -10 10 -25 15 -33 14 -20 100 -170 141 -245 18 -33 36 -62 39 -65 3 -3 13 -18 21 -35 8 -16 22 -42 32 -56 9 -14 18 -32 20 -40 2 -8 8 -18 14 -24 6 -5 26 -37 44 -70 17 -33 43 -79 57 -103 l26 -43 -604 3 c-390 2 -610 7 -621 13 -16 10 -14 16 18 70 20 33 47 80 61 105 13 25 32 59 42 75 10 17 27 46 38 65 37 64 113 195 123 210 5 8 21 38 36 65 15 28 41 73 59 100 17 28 38 65 46 83 7 17 17 32 21 32 5 0 8 4 8 9 0 19 143 252 150 244 5 -4 17 -24 28 -43z"/>
 <path d="M1415 4014 c-91 -19 -128 -30 -150 -41 -11 -6 -42 -21 -70 -34 -162 -74 -328 -241 -404 -404 -13 -27 -26 -57 -30 -65 -11 -22 -38 -117 -50 -178 -14 -68 -14 -239 0 -300 23 -104 33 -138 45 -162 7 -14 27 -56 44 -94 18 -39 39 -76 46 -84 8 -7 14 -18 14 -24 0 -19 204 -212 251 -237 133 -73 201 -98 341 -126 103 -20 177 -19 289 4 113 23 177 44 244 79 351 184 546 562 481 935 -9 48 -20 96 -26 107 -5 10 -10 26 -10 34 0 16 -51 126 -93 201 -24 43 -181 207 -237 247 -61 43 -170 97 -245 119 -129 40 -320 50 -440 23z"/>
 </g>

</svg>